<mxfile host="app.diagrams.net" modified="2022-08-29T12:24:25.687Z" agent="5.0 (Windows NT 10.0; Win64; x64) AppleWebKit/537.36 (KHTML, like Gecko) Chrome/104.0.0.0 Safari/537.36" etag="bRg0Xkggc3cQiJFdJanR" version="20.2.7" type="github">
  <diagram name="Page-1" id="7a6c530e-6e37-e111-ec74-82921da8cc10">
    <mxGraphModel dx="2214" dy="1237" grid="1" gridSize="10" guides="1" tooltips="1" connect="1" arrows="1" fold="1" page="1" pageScale="1.5" pageWidth="1169" pageHeight="826" background="#184380" math="0" shadow="0">
      <root>
        <mxCell id="0" style=";html=1;" />
        <mxCell id="1" style=";html=1;" parent="0" />
        <mxCell id="23046e2b9bb16c14-116" value="" style="whiteSpace=wrap;html=1;rounded=1;shadow=0;strokeColor=none;strokeWidth=2;fillColor=#009BFF;fontSize=20;fontColor=#FFFFFF;align=center;arcSize=1;verticalAlign=top;spacingTop=4;opacity=50;" parent="1" vertex="1">
          <mxGeometry x="30" y="200" width="1690" height="1010" as="geometry" />
        </mxCell>
        <mxCell id="23046e2b9bb16c14-27" value="" style="rounded=1;whiteSpace=wrap;html=1;shadow=0;strokeWidth=2;fillColor=#8BC63E;fontSize=12;fontColor=#FFFFFF;align=left;strokeColor=none;arcSize=3;labelPosition=right;verticalLabelPosition=middle;verticalAlign=middle;opacity=50;" parent="1" vertex="1">
          <mxGeometry x="456" y="221" width="530" height="420" as="geometry" />
        </mxCell>
        <mxCell id="23046e2b9bb16c14-2" value="Deployable resources" style="rounded=1;whiteSpace=wrap;html=1;shadow=0;strokeWidth=2;fillColor=none;fontSize=12;fontColor=#FFFFFF;align=center;strokeColor=#FFFFFF;arcSize=10;labelPosition=center;verticalLabelPosition=top;verticalAlign=bottom;fontStyle=1" parent="1" vertex="1">
          <mxGeometry x="619" y="350" width="171" height="241" as="geometry" />
        </mxCell>
        <mxCell id="23046e2b9bb16c14-54" value="Availability set" style="rounded=1;whiteSpace=wrap;html=1;shadow=0;strokeWidth=2;fillColor=none;fontSize=11;fontColor=#FFFFFF;align=center;strokeColor=#FFFFFF;dashed=1;verticalAlign=top;" parent="1" vertex="1">
          <mxGeometry x="629" y="360" width="151" height="222" as="geometry" />
        </mxCell>
        <mxCell id="23046e2b9bb16c14-28" value="Infrastructure Resources&lt;br&gt;" style="rounded=1;whiteSpace=wrap;html=1;shadow=0;strokeWidth=2;fillColor=#F04D22;fontSize=12;fontColor=#FFFFFF;align=center;strokeColor=none;arcSize=4;verticalAlign=top;opacity=50;" parent="1" vertex="1">
          <mxGeometry x="50" y="220" width="380" height="420" as="geometry" />
        </mxCell>
        <mxCell id="23046e2b9bb16c14-49" value="" style="rounded=1;whiteSpace=wrap;html=1;shadow=0;strokeWidth=2;fillColor=none;fontSize=12;fontColor=#000000;align=center;strokeColor=#FFFFFF;arcSize=6;" parent="1" vertex="1">
          <mxGeometry x="80" y="340" width="160" height="218" as="geometry" />
        </mxCell>
        <mxCell id="23046e2b9bb16c14-1" value="Dependant resources" style="rounded=1;whiteSpace=wrap;html=1;shadow=0;strokeWidth=2;fillColor=none;fontSize=12;fontColor=#FFFFFF;align=center;strokeColor=#FFFFFF;labelPosition=center;verticalLabelPosition=top;verticalAlign=bottom;fontStyle=1;arcSize=12;" parent="1" vertex="1">
          <mxGeometry x="476" y="350" width="134" height="240" as="geometry" />
        </mxCell>
        <mxCell id="23046e2b9bb16c14-50" value="" style="rounded=1;whiteSpace=wrap;html=1;shadow=0;strokeWidth=2;fillColor=none;fontSize=12;fontColor=#000000;align=center;strokeColor=#FFFFFF;arcSize=7;" parent="1" vertex="1">
          <mxGeometry x="250" y="339" width="156" height="218" as="geometry" />
        </mxCell>
        <mxCell id="24964f25f45c63f1-4" value="Gateway" style="shadow=0;dashed=0;html=1;strokeColor=none;shape=mxgraph.mscae.enterprise.gateway;fillColor=#FFFFFF;rounded=0;fontSize=12;fontColor=#FFFFFF;align=center;labelPosition=center;verticalLabelPosition=top;verticalAlign=bottom;" parent="1" vertex="1">
          <mxGeometry x="213" y="578" width="50" height="50" as="geometry" />
        </mxCell>
        <mxCell id="23046e2b9bb16c14-55" value="Seeding data" style="rounded=1;whiteSpace=wrap;html=1;shadow=0;strokeWidth=2;fillColor=none;fontSize=12;fontColor=#FFFFFF;align=center;strokeColor=#FFFFFF;arcSize=9;labelPosition=center;verticalLabelPosition=top;verticalAlign=bottom;fontStyle=1" parent="1" vertex="1">
          <mxGeometry x="801" y="350" width="160" height="241" as="geometry" />
        </mxCell>
        <mxCell id="23046e2b9bb16c14-84" value="" style="rounded=0;whiteSpace=wrap;html=1;shadow=0;strokeWidth=2;fillColor=#F04D22;fontSize=12;fontColor=#FFFFFF;align=center;strokeColor=none;arcSize=6;verticalAlign=top;" parent="1" vertex="1">
          <mxGeometry x="324" y="20" width="300" height="102" as="geometry" />
        </mxCell>
        <mxCell id="23046e2b9bb16c14-85" value="" style="rounded=0;whiteSpace=wrap;html=1;shadow=0;strokeWidth=2;fillColor=#8BC63E;fontSize=12;fontColor=#FFFFFF;align=center;strokeColor=none;arcSize=6;verticalAlign=top;" parent="1" vertex="1">
          <mxGeometry x="624" y="20" width="400" height="102" as="geometry" />
        </mxCell>
        <mxCell id="23046e2b9bb16c14-86" value="" style="rounded=0;whiteSpace=wrap;html=1;shadow=0;strokeWidth=2;fillColor=#0072BC;fontSize=12;fontColor=#FFFFFF;align=center;strokeColor=none;arcSize=3;verticalAlign=top;" parent="1" vertex="1">
          <mxGeometry x="1024" y="20" width="390" height="102" as="geometry" />
        </mxCell>
        <mxCell id="23046e2b9bb16c14-87" value="A" style="text;html=1;strokeColor=none;fillColor=none;align=center;verticalAlign=middle;whiteSpace=wrap;rounded=1;shadow=0;fontSize=30;fontColor=#FFFFFF;fontStyle=1" parent="1" vertex="1">
          <mxGeometry x="324" y="53" width="40" height="35" as="geometry" />
        </mxCell>
        <mxCell id="23046e2b9bb16c14-88" value="B" style="text;html=1;strokeColor=none;fillColor=none;align=center;verticalAlign=middle;whiteSpace=wrap;rounded=1;shadow=0;fontSize=30;fontColor=#FFFFFF;fontStyle=1" parent="1" vertex="1">
          <mxGeometry x="624" y="53" width="40" height="35" as="geometry" />
        </mxCell>
        <mxCell id="23046e2b9bb16c14-89" value="C" style="text;html=1;strokeColor=none;fillColor=none;align=center;verticalAlign=middle;whiteSpace=wrap;rounded=1;shadow=0;fontSize=30;fontColor=#FFFFFF;fontStyle=1" parent="1" vertex="1">
          <mxGeometry x="1024" y="53" width="40" height="35" as="geometry" />
        </mxCell>
        <mxCell id="23046e2b9bb16c14-90" value="Computer" style="verticalLabelPosition=top;html=1;verticalAlign=bottom;strokeColor=none;fillColor=#FFFFFF;shape=mxgraph.azure.computer;rounded=0;shadow=0;fontSize=10;fontColor=#FFFFFF;align=center;labelPosition=center;" parent="1" vertex="1">
          <mxGeometry x="391" y="60" width="50" height="45" as="geometry" />
        </mxCell>
        <mxCell id="23046e2b9bb16c14-91" value="VHD" style="shadow=0;html=1;strokeColor=none;fillColor=#FFFFFF;labelPosition=center;verticalLabelPosition=top;verticalAlign=bottom;shape=mxgraph.azure.vhd;rounded=0;fontSize=10;fontColor=#FFFFFF;align=center;" parent="1" vertex="1">
          <mxGeometry x="481" y="57" width="40" height="50" as="geometry" />
        </mxCell>
        <mxCell id="23046e2b9bb16c14-92" value="+" style="text;html=1;strokeColor=none;fillColor=none;align=center;verticalAlign=middle;whiteSpace=wrap;rounded=1;shadow=0;fontSize=30;fontColor=#FFFFFF;fontStyle=1" parent="1" vertex="1">
          <mxGeometry x="441" y="65" width="40" height="35" as="geometry" />
        </mxCell>
        <mxCell id="23046e2b9bb16c14-93" value="+" style="text;html=1;strokeColor=none;fillColor=none;align=center;verticalAlign=middle;whiteSpace=wrap;rounded=1;shadow=0;fontSize=30;fontColor=#FFFFFF;fontStyle=1" parent="1" vertex="1">
          <mxGeometry x="521" y="65" width="40" height="35" as="geometry" />
        </mxCell>
        <mxCell id="23046e2b9bb16c14-94" value="Server&lt;div&gt;Directory&lt;/div&gt;" style="shadow=0;html=1;strokeColor=none;shape=mxgraph.mscae.enterprise.server_directory;fillColor=#FFFFFF;rounded=0;fontSize=10;fontColor=#FFFFFF;align=center;verticalAlign=bottom;labelPosition=center;verticalLabelPosition=top;" parent="1" vertex="1">
          <mxGeometry x="561" y="58" width="36" height="50" as="geometry" />
        </mxCell>
        <mxCell id="23046e2b9bb16c14-95" value="VM Feature" style="shadow=0;html=1;strokeColor=none;fillColor=#FFFFFF;labelPosition=center;verticalLabelPosition=top;verticalAlign=bottom;shape=mxgraph.azure.virtual_machine_feature;rounded=0;fontSize=10;fontColor=#FFFFFF;align=center;" parent="1" vertex="1">
          <mxGeometry x="682" y="61" width="50" height="45" as="geometry" />
        </mxCell>
        <mxCell id="23046e2b9bb16c14-96" value="+" style="text;html=1;strokeColor=none;fillColor=none;align=center;verticalAlign=middle;whiteSpace=wrap;rounded=1;shadow=0;fontSize=30;fontColor=#FFFFFF;fontStyle=1" parent="1" vertex="1">
          <mxGeometry x="732" y="66" width="40" height="35" as="geometry" />
        </mxCell>
        <mxCell id="23046e2b9bb16c14-97" value="VHD" style="shadow=0;html=1;strokeColor=none;fillColor=#FFFFFF;labelPosition=center;verticalLabelPosition=top;verticalAlign=bottom;shape=mxgraph.azure.vhd;rounded=0;fontSize=10;fontColor=#FFFFFF;align=center;" parent="1" vertex="1">
          <mxGeometry x="772" y="58" width="40" height="50" as="geometry" />
        </mxCell>
        <mxCell id="23046e2b9bb16c14-98" value="3rd Party&lt;div&gt;Integration&lt;/div&gt;" style="shadow=0;html=1;strokeColor=none;fillColor=#FFFFFF;labelPosition=center;verticalLabelPosition=top;verticalAlign=bottom;shape=mxgraph.office.communications.3rd_party_integration;rounded=0;fontSize=10;fontColor=#FFFFFF;align=center;" parent="1" vertex="1">
          <mxGeometry x="852" y="56" width="54" height="55" as="geometry" />
        </mxCell>
        <mxCell id="23046e2b9bb16c14-99" value="+" style="text;html=1;strokeColor=none;fillColor=none;align=center;verticalAlign=middle;whiteSpace=wrap;rounded=1;shadow=0;fontSize=30;fontColor=#FFFFFF;fontStyle=1" parent="1" vertex="1">
          <mxGeometry x="812" y="66" width="40" height="35" as="geometry" />
        </mxCell>
        <mxCell id="23046e2b9bb16c14-100" value="+" style="text;html=1;strokeColor=none;fillColor=none;align=center;verticalAlign=middle;whiteSpace=wrap;rounded=1;shadow=0;fontSize=30;fontColor=#FFFFFF;fontStyle=1" parent="1" vertex="1">
          <mxGeometry x="906" y="66" width="40" height="35" as="geometry" />
        </mxCell>
        <mxCell id="23046e2b9bb16c14-101" value="Data Migration&lt;div&gt;Wizard&lt;/div&gt;" style="shadow=0;html=1;strokeColor=none;shape=mxgraph.mscae.intune.data_migration_wizard;fillColor=#FFFFFF;rounded=0;fontSize=10;fontColor=#FFFFFF;align=center;verticalAlign=bottom;labelPosition=center;verticalLabelPosition=top;" parent="1" vertex="1">
          <mxGeometry x="946" y="59" width="50" height="48" as="geometry" />
        </mxCell>
        <mxCell id="23046e2b9bb16c14-102" value="VM Feature" style="shadow=0;html=1;strokeColor=none;fillColor=#FFFFFF;labelPosition=center;verticalLabelPosition=top;verticalAlign=bottom;shape=mxgraph.azure.virtual_machine_feature;rounded=0;fontSize=10;fontColor=#FFFFFF;align=center;" parent="1" vertex="1">
          <mxGeometry x="1084" y="61" width="50" height="45" as="geometry" />
        </mxCell>
        <mxCell id="23046e2b9bb16c14-103" value="" style="line;strokeWidth=2;direction=south;html=1;rounded=0;shadow=0;fillColor=none;fontSize=30;fontColor=#FFFFFF;align=center;strokeColor=#FFFFFF;" parent="1" vertex="1">
          <mxGeometry x="364" y="20" width="10" height="102" as="geometry" />
        </mxCell>
        <mxCell id="23046e2b9bb16c14-104" value="" style="line;strokeWidth=2;direction=south;html=1;rounded=0;shadow=0;fillColor=none;fontSize=30;fontColor=#FFFFFF;align=center;strokeColor=#FFFFFF;" parent="1" vertex="1">
          <mxGeometry x="664" y="20" width="10" height="102" as="geometry" />
        </mxCell>
        <mxCell id="23046e2b9bb16c14-105" value="" style="line;strokeWidth=2;direction=south;html=1;rounded=0;shadow=0;fillColor=none;fontSize=30;fontColor=#FFFFFF;align=center;strokeColor=#FFFFFF;" parent="1" vertex="1">
          <mxGeometry x="1064" y="20" width="10" height="102" as="geometry" />
        </mxCell>
        <mxCell id="23046e2b9bb16c14-106" value="+" style="text;html=1;strokeColor=none;fillColor=none;align=center;verticalAlign=middle;whiteSpace=wrap;rounded=1;shadow=0;fontSize=30;fontColor=#FFFFFF;fontStyle=1" parent="1" vertex="1">
          <mxGeometry x="1134" y="66" width="40" height="35" as="geometry" />
        </mxCell>
        <mxCell id="23046e2b9bb16c14-107" value="Azure&lt;div&gt;Website&lt;/div&gt;" style="verticalLabelPosition=top;html=1;verticalAlign=bottom;strokeColor=none;fillColor=#FFFFFF;shape=mxgraph.azure.azure_website;rounded=0;shadow=0;fontSize=10;fontColor=#FFFFFF;align=center;labelPosition=center;" parent="1" vertex="1">
          <mxGeometry x="1174" y="58" width="50" height="50" as="geometry" />
        </mxCell>
        <mxCell id="23046e2b9bb16c14-108" value="+" style="text;html=1;strokeColor=none;fillColor=none;align=center;verticalAlign=middle;whiteSpace=wrap;rounded=1;shadow=0;fontSize=30;fontColor=#FFFFFF;fontStyle=1" parent="1" vertex="1">
          <mxGeometry x="1224" y="66" width="40" height="35" as="geometry" />
        </mxCell>
        <mxCell id="23046e2b9bb16c14-109" value="MySQL&lt;div&gt;Database&lt;/div&gt;" style="verticalLabelPosition=top;html=1;verticalAlign=bottom;strokeColor=none;fillColor=#FFFFFF;shape=mxgraph.azure.mysql_database;rounded=0;shadow=0;fontSize=10;fontColor=#FFFFFF;align=center;labelPosition=center;" parent="1" vertex="1">
          <mxGeometry x="1264" y="59" width="37.5" height="50" as="geometry" />
        </mxCell>
        <mxCell id="23046e2b9bb16c14-110" value="+" style="text;html=1;strokeColor=none;fillColor=none;align=center;verticalAlign=middle;whiteSpace=wrap;rounded=1;shadow=0;fontSize=30;fontColor=#FFFFFF;fontStyle=1" parent="1" vertex="1">
          <mxGeometry x="1302" y="66" width="40" height="35" as="geometry" />
        </mxCell>
        <mxCell id="23046e2b9bb16c14-111" value="Azure&lt;div&gt;Storage&lt;/div&gt;" style="shadow=0;html=1;strokeColor=none;labelPosition=center;verticalLabelPosition=top;verticalAlign=bottom;shape=mxgraph.mscae.cloud.azure_storage;fillColor=#FFFFFF;rounded=0;fontSize=10;fontColor=#FFFFFF;align=center;" parent="1" vertex="1">
          <mxGeometry x="1342" y="62" width="50" height="43" as="geometry" />
        </mxCell>
        <mxCell id="23046e2b9bb16c14-115" value="&lt;h1&gt;Heading&lt;/h1&gt;&lt;p&gt;Lorem ipsum dolor sit amet, consectetur adipisicing elit, sed do eiusmod tempor incididunt ut labore et dolore magna aliqua.&lt;/p&gt;" style="text;html=1;strokeColor=none;fillColor=none;spacing=5;spacingTop=-20;whiteSpace=wrap;overflow=hidden;rounded=0;shadow=0;fontSize=10;fontColor=#FFFFFF;align=left;" parent="1" vertex="1">
          <mxGeometry x="320" y="122" width="1041" height="70" as="geometry" />
        </mxCell>
        <mxCell id="pQ5sCnLRhXGrllm_cWw9-2" value="kv-p8-prod" style="aspect=fixed;html=1;points=[];align=center;image;fontSize=12;image=img/lib/azure2/security/Key_Vaults.svg;sketch=0;labelBackgroundColor=none;fontColor=#FFFFFF;" parent="1" vertex="1">
          <mxGeometry x="135" y="360" width="50" height="50" as="geometry" />
        </mxCell>
        <mxCell id="pQ5sCnLRhXGrllm_cWw9-3" value="secret1" style="points=[[0,0.5,0],[0.24,0,0],[0.5,0.28,0],[0.995,0.475,0],[0.5,0.72,0],[0.24,1,0]];verticalLabelPosition=middle;sketch=0;html=1;verticalAlign=middle;aspect=fixed;align=left;pointerEvents=1;shape=mxgraph.cisco19.key;labelBackgroundColor=none;labelPosition=right;fontColor=#FFFFFF;" parent="1" vertex="1">
          <mxGeometry x="99" y="444" width="22.22" height="10" as="geometry" />
        </mxCell>
        <mxCell id="pQ5sCnLRhXGrllm_cWw9-6" value="secret1" style="points=[[0,0.5,0],[0.24,0,0],[0.5,0.28,0],[0.995,0.475,0],[0.5,0.72,0],[0.24,1,0]];verticalLabelPosition=middle;sketch=0;html=1;verticalAlign=middle;aspect=fixed;align=left;pointerEvents=1;shape=mxgraph.cisco19.key;labelBackgroundColor=none;labelPosition=right;fontColor=#FFFFFF;" parent="1" vertex="1">
          <mxGeometry x="99" y="467" width="22.22" height="10" as="geometry" />
        </mxCell>
        <mxCell id="pQ5sCnLRhXGrllm_cWw9-7" value="secret1" style="points=[[0,0.5,0],[0.24,0,0],[0.5,0.28,0],[0.995,0.475,0],[0.5,0.72,0],[0.24,1,0]];verticalLabelPosition=middle;sketch=0;html=1;verticalAlign=middle;aspect=fixed;align=left;pointerEvents=1;shape=mxgraph.cisco19.key;labelBackgroundColor=none;labelPosition=right;fontColor=#FFFFFF;" parent="1" vertex="1">
          <mxGeometry x="99" y="491" width="22.22" height="10" as="geometry" />
        </mxCell>
        <mxCell id="pQ5sCnLRhXGrllm_cWw9-8" value="secret1" style="points=[[0,0.5,0],[0.24,0,0],[0.5,0.28,0],[0.995,0.475,0],[0.5,0.72,0],[0.24,1,0]];verticalLabelPosition=middle;sketch=0;html=1;verticalAlign=middle;aspect=fixed;align=left;pointerEvents=1;shape=mxgraph.cisco19.key;labelBackgroundColor=none;labelPosition=right;fontColor=#FFFFFF;" parent="1" vertex="1">
          <mxGeometry x="99" y="515" width="22.22" height="10" as="geometry" />
        </mxCell>
        <mxCell id="pQ5sCnLRhXGrllm_cWw9-10" value="ADD-subsc" style="aspect=fixed;html=1;points=[];align=center;image;fontSize=12;image=img/lib/azure2/identity/Azure_Active_Directory.svg;labelBackgroundColor=none;sketch=0;fontColor=#FFFFFF;" parent="1" vertex="1">
          <mxGeometry x="300.65999999999997" y="360" width="54.69" height="50" as="geometry" />
        </mxCell>
        <mxCell id="pQ5sCnLRhXGrllm_cWw9-11" value="user1" style="verticalLabelPosition=middle;html=1;verticalAlign=middle;align=left;shape=mxgraph.azure.user;labelBackgroundColor=none;sketch=0;strokeColor=none;labelPosition=right;fontColor=#FFFFFF;" parent="1" vertex="1">
          <mxGeometry x="274" y="441" width="14" height="14" as="geometry" />
        </mxCell>
        <mxCell id="pQ5sCnLRhXGrllm_cWw9-12" value="user1" style="verticalLabelPosition=middle;html=1;verticalAlign=middle;align=left;shape=mxgraph.azure.user;labelBackgroundColor=none;sketch=0;strokeColor=none;labelPosition=right;fontColor=#FFFFFF;" parent="1" vertex="1">
          <mxGeometry x="274" y="464" width="14" height="14" as="geometry" />
        </mxCell>
        <mxCell id="pQ5sCnLRhXGrllm_cWw9-13" value="user1" style="verticalLabelPosition=middle;html=1;verticalAlign=middle;align=left;shape=mxgraph.azure.user;labelBackgroundColor=none;sketch=0;strokeColor=none;labelPosition=right;fontColor=#FFFFFF;" parent="1" vertex="1">
          <mxGeometry x="274" y="488" width="14" height="14" as="geometry" />
        </mxCell>
        <mxCell id="pQ5sCnLRhXGrllm_cWw9-20" value="" style="endArrow=classic;html=1;rounded=1;fontSize=9;fontColor=#FFFFFF;exitX=0.5;exitY=1;exitDx=0;exitDy=0;entryX=0.5;entryY=0;entryDx=0;entryDy=0;strokeColor=#CCCCCC;jumpSize=10;arcSize=26;endSize=6;startSize=5;" parent="1" source="pQ5sCnLRhXGrllm_cWw9-18" target="pQ5sCnLRhXGrllm_cWw9-19" edge="1">
          <mxGeometry width="50" height="50" relative="1" as="geometry">
            <mxPoint x="709" y="428.34" as="sourcePoint" />
            <mxPoint x="759" y="378.34" as="targetPoint" />
          </mxGeometry>
        </mxCell>
        <mxCell id="pQ5sCnLRhXGrllm_cWw9-18" value="storage account&#xa;stptwinstaller" style="shape=image;verticalLabelPosition=bottom;verticalAlign=top;imageAspect=0;aspect=fixed;image=data:image/svg+xml,PHN2ZyB4bWxuczpkYz0iaHR0cDovL3B1cmwub3JnL2RjL2VsZW1lbnRzLzEuMS8iIHhtbG5zOmNjPSJodHRwOi8vY3JlYXRpdmVjb21tb25zLm9yZy9ucyMiIHhtbG5zOnJkZj0iaHR0cDovL3d3dy53My5vcmcvMTk5OS8wMi8yMi1yZGYtc3ludGF4LW5zIyIgeG1sbnM6c3ZnPSJodHRwOi8vd3d3LnczLm9yZy8yMDAwL3N2ZyIgeG1sbnM9Imh0dHA6Ly93d3cudzMub3JnLzIwMDAvc3ZnIiB4bWxuczpzb2RpcG9kaT0iaHR0cDovL3NvZGlwb2RpLnNvdXJjZWZvcmdlLm5ldC9EVEQvc29kaXBvZGktMC5kdGQiIHhtbG5zOmlua3NjYXBlPSJodHRwOi8vd3d3Lmlua3NjYXBlLm9yZy9uYW1lc3BhY2VzL2lua3NjYXBlIiB2ZXJzaW9uPSIxLjEiIGlkPSJMYXllcl8xIiB4PSIwcHgiIHk9IjBweCIgd2lkdGg9IjUwIiBoZWlnaHQ9IjQyLjkwMDAwMiIgdmlld0JveD0iMCAwIDUwIDQyLjkwMDAwMiIgZW5hYmxlLWJhY2tncm91bmQ9Im5ldyAwIDAgNTAgNTAiIHhtbDpzcGFjZT0icHJlc2VydmUiIHNvZGlwb2RpOmRvY25hbWU9InN0b3JhZ2VfYWNjb3VudHNfY2xhc3NpYy5zdmciIGlua3NjYXBlOnZlcnNpb249IjAuOTIuMyAoMjQwNTU0NiwgMjAxOC0wMy0xMSkiPjxtZXRhZGF0YSBpZD0ibWV0YWRhdGExMDgwOSI+PHJkZjpSREY+PGNjOldvcmsgcmRmOmFib3V0PSIiPjxkYzpmb3JtYXQ+aW1hZ2Uvc3ZnK3htbDwvZGM6Zm9ybWF0PjxkYzp0eXBlIHJkZjpyZXNvdXJjZT0iaHR0cDovL3B1cmwub3JnL2RjL2RjbWl0eXBlL1N0aWxsSW1hZ2UiLz48ZGM6dGl0bGUvPjwvY2M6V29yaz48L3JkZjpSREY+PC9tZXRhZGF0YT48ZGVmcyBpZD0iZGVmczEwODA3Ii8+PHNvZGlwb2RpOm5hbWVkdmlldyBwYWdlY29sb3I9IiNmZmZmZmYiIGJvcmRlcmNvbG9yPSIjNjY2NjY2IiBib3JkZXJvcGFjaXR5PSIxIiBvYmplY3R0b2xlcmFuY2U9IjEwIiBncmlkdG9sZXJhbmNlPSIxMCIgZ3VpZGV0b2xlcmFuY2U9IjEwIiBpbmtzY2FwZTpwYWdlb3BhY2l0eT0iMCIgaW5rc2NhcGU6cGFnZXNoYWRvdz0iMiIgaW5rc2NhcGU6d2luZG93LXdpZHRoPSIxOTIwIiBpbmtzY2FwZTp3aW5kb3ctaGVpZ2h0PSIxMDE3IiBpZD0ibmFtZWR2aWV3MTA4MDUiIHNob3dncmlkPSJmYWxzZSIgZml0LW1hcmdpbi10b3A9IjAiIGZpdC1tYXJnaW4tbGVmdD0iMCIgZml0LW1hcmdpbi1yaWdodD0iMCIgZml0LW1hcmdpbi1ib3R0b209IjAiIGlua3NjYXBlOnpvb209IjE3IiBpbmtzY2FwZTpjeD0iMjUiIGlua3NjYXBlOmN5PSIyMiIgaW5rc2NhcGU6d2luZG93LXg9Ii04IiBpbmtzY2FwZTp3aW5kb3cteT0iLTgiIGlua3NjYXBlOndpbmRvdy1tYXhpbWl6ZWQ9IjEiIGlua3NjYXBlOmN1cnJlbnQtbGF5ZXI9IkxheWVyXzEiLz4mI3hhOzxwYXRoIGQ9Im0gMCw0MSBjIDAsMSAwLjgsMS45IDEuOCwxLjkgaCA0Ni4zIGMgMSwwIDEuOSwtMC44IDEuOSwtMS45IFYgNy45IEggMCBaIiBpZD0icGF0aDEwNzk0IiBpbmtzY2FwZTpjb25uZWN0b3ItY3VydmF0dXJlPSIwIiBzdHlsZT0iZmlsbDojNTliNGQ5Ii8+JiN4YTs8cGF0aCBkPSJNIDQ4LjEsMCBIIDEuOCBDIDAuOCwwIDAsMC45IDAsMS45IHYgNiBoIDUwIHYgLTYgYyAwLC0xIC0wLjgsLTEuNiAtMS45LC0xLjYiIGlkPSJwYXRoMTA3OTYiIGlua3NjYXBlOmNvbm5lY3Rvci1jdXJ2YXR1cmU9IjAiIHN0eWxlPSJmaWxsOiMwMDcyYzYiLz4mI3hhOzxyZWN0IHg9IjQiIHk9IjIxLjQiIHdpZHRoPSI0MiIgaGVpZ2h0PSI3IiBpZD0icmVjdDEwNzk4IiBzdHlsZT0iZmlsbDojMDA3MmM2Ii8+JiN4YTs8cmVjdCB4PSI0IiB5PSIxMC45IiB3aWR0aD0iNDIiIGhlaWdodD0iNyIgaWQ9InJlY3QxMDgwMCIgc3R5bGU9ImZpbGw6I2ZmZmZmZiIvPiYjeGE7PHJlY3QgeD0iNCIgeT0iMzEuOSIgd2lkdGg9IjQyIiBoZWlnaHQ9IjciIGlkPSJyZWN0MTA4MDIiIHN0eWxlPSJmaWxsOiMwMDcyYzYiLz4mI3hhOzwvc3ZnPg==;shadow=0;labelBackgroundColor=none;sketch=0;fillStyle=solid;fontSize=9;fontColor=#FFFFFF;fillColor=#FFFFFF;spacing=0;imageBackground=none;" parent="1" vertex="1">
          <mxGeometry x="671.89" y="391.91" width="65.22" height="56.09" as="geometry" />
        </mxCell>
        <mxCell id="pQ5sCnLRhXGrllm_cWw9-19" value="blob container&#xa;installation-public&#xa;" style="shape=image;verticalLabelPosition=bottom;labelBackgroundColor=none;verticalAlign=top;aspect=fixed;imageAspect=0;image=data:image/svg+xml,PHN2ZyB4bWxuczpjYz0iaHR0cDovL2NyZWF0aXZlY29tbW9ucy5vcmcvbnMjIiB4bWxuczpkYz0iaHR0cDovL3B1cmwub3JnL2RjL2VsZW1lbnRzLzEuMS8iIHhtbG5zOmlua3NjYXBlPSJodHRwOi8vd3d3Lmlua3NjYXBlLm9yZy9uYW1lc3BhY2VzL2lua3NjYXBlIiB4bWxuczpyZGY9Imh0dHA6Ly93d3cudzMub3JnLzE5OTkvMDIvMjItcmRmLXN5bnRheC1ucyMiIHhtbG5zOnNvZGlwb2RpPSJodHRwOi8vc29kaXBvZGkuc291cmNlZm9yZ2UubmV0L0RURC9zb2RpcG9kaS0wLmR0ZCIgeG1sbnM6c3ZnPSJodHRwOi8vd3d3LnczLm9yZy8yMDAwL3N2ZyIgeG1sbnM9Imh0dHA6Ly93d3cudzMub3JnLzIwMDAvc3ZnIiB4bWxuczp4bGluaz0iaHR0cDovL3d3dy53My5vcmcvMTk5OS94bGluayIgdmVyc2lvbj0iMS4xIiBpZD0ic3ZnNTgwODUiIGlua3NjYXBlOnZlcnNpb249IjAuOTIuMyAoMjQwNTU0NiwgMjAxOC0wMy0xMSkiIHNvZGlwb2RpOmRvY25hbWU9ImF6dXJlX2ZpbGVzX3N0b3JhZ2Uuc3ZnIiB4PSIwcHgiIHk9IjBweCIgdmlld0JveD0iMCAwIDc1LjE3IDYyLjY1IiBzdHlsZT0iZW5hYmxlLWJhY2tncm91bmQ6bmV3IDAgMCA3NS4xNyA2Mi42NTsiIHhtbDpzcGFjZT0icHJlc2VydmUiPiYjeGE7PHNvZGlwb2RpOm5hbWVkdmlldyBib3JkZXJjb2xvcj0iIzY2NjY2NiIgYm9yZGVyb3BhY2l0eT0iMSIgZml0LW1hcmdpbi1ib3R0b209IjAiIGZpdC1tYXJnaW4tbGVmdD0iMCIgZml0LW1hcmdpbi1yaWdodD0iMCIgZml0LW1hcmdpbi10b3A9IjAiIGdyaWR0b2xlcmFuY2U9IjEwIiBndWlkZXRvbGVyYW5jZT0iMTAiIGlkPSJuYW1lZHZpZXc1ODA4NyIgaW5rc2NhcGU6Y3VycmVudC1sYXllcj0ic3ZnNTgwODUiIGlua3NjYXBlOmN4PSIxMDcuNDEzOTciIGlua3NjYXBlOmN5PSIyNS4yNzAzOCIgaW5rc2NhcGU6cGFnZW9wYWNpdHk9IjAiIGlua3NjYXBlOnBhZ2VzaGFkb3c9IjIiIGlua3NjYXBlOndpbmRvdy1oZWlnaHQ9IjEwMTciIGlua3NjYXBlOndpbmRvdy1tYXhpbWl6ZWQ9IjEiIGlua3NjYXBlOndpbmRvdy13aWR0aD0iMTkyMCIgaW5rc2NhcGU6d2luZG93LXg9Ii04IiBpbmtzY2FwZTp3aW5kb3cteT0iLTgiIGlua3NjYXBlOnpvb209IjQuMTcxMTY5OSIgb2JqZWN0dG9sZXJhbmNlPSIxMCIgcGFnZWNvbG9yPSIjZmZmZmZmIiBzaG93Z3JpZD0iZmFsc2UiPiYjeGE7CTwvc29kaXBvZGk6bmFtZWR2aWV3PiYjeGE7PGcgaWQ9Imc1ODA4MyIgdHJhbnNmb3JtPSJ0cmFuc2xhdGUoLTcuNjUwMTcwMywtNy42NDczOTUpIj4mI3hhOwk8dGl0bGUgaWQ9InRpdGxlNTgwNDYiPlBhZ2UtMTwvdGl0bGU+JiN4YTsJPGcgaWQ9Imdyb3VwNTIwOS0xIiB0cmFuc2Zvcm09InRyYW5zbGF0ZSg3LjY1LC03LjY1KSI+JiN4YTsJCTx0aXRsZSBpZD0idGl0bGU1ODA0OCI+QXp1cmUgRmlsZXMgU3RvcmFnZTwvdGl0bGU+JiN4YTsJCTxnIGlkPSJzaGFwZTUyMTAtMiI+JiN4YTsJCQk8dGl0bGUgaWQ9InRpdGxlNTgwNTAiPlNoZWV0LjUyMTA8L3RpdGxlPiYjeGE7CQkJPHBhdGggaWQ9InBhdGg1ODA1MiIgaW5rc2NhcGU6Y29ubmVjdG9yLWN1cnZhdHVyZT0iMCIgc3R5bGU9ImZpbGw6I0EwQTFBMjsiIGQ9Ik0wLDc1LjE4YzAsMS40NSwxLjIsMi43NywyLjcxLDIuNzdoNjkuNjEgICAgIGMxLjUsMCwyLjg1LTEuMTcsMi44NS0yLjc3VjI2Ljk1SDBWNzUuMTh6Ii8+JiN4YTsJCTwvZz4mI3hhOwkJPGcgaWQ9InNoYXBlNTIxMS00IiB0cmFuc2Zvcm09InRyYW5zbGF0ZSgwLC01MC45OTExKSI+JiN4YTsJCQk8dGl0bGUgaWQ9InRpdGxlNTgwNTUiPlNoZWV0LjUyMTE8L3RpdGxlPiYjeGE7CQkJPHBhdGggaWQ9InBhdGg1ODA1NyIgaW5rc2NhcGU6Y29ubmVjdG9yLWN1cnZhdHVyZT0iMCIgc3R5bGU9ImZpbGw6IzdBN0E3QTsiIGQ9Ik03Mi4zMiw2Ni40NEgyLjcxQzEuMiw2Ni40NCwwLDY3Ljc1LDAsNjkuMiAgICAgdjguNzVoNzUuMTd2LTguNzRjMC0xLjQ2LTEuMjItMi42MS0yLjg3LTIuNjFMNzIuMzIsNjYuNDR6Ii8+JiN4YTsJCQk8cGF0aCBpZD0icGF0aDU4MDU5IiBpbmtzY2FwZTpjb25uZWN0b3ItY3VydmF0dXJlPSIwIiBzdHlsZT0iZmlsbDpub25lOyIgZD0iTTcyLjMyLDY2LjQ0SDIuNzFDMS4yLDY2LjQ0LDAsNjcuNzUsMCw2OS4ydjguNzUgICAgIGg3NS4xN3YtOC43NGMwLTEuNDYtMS4yMi0yLjYxLTIuODctMi42MSIvPiYjeGE7CQk8L2c+JiN4YTsJCTxnIGlkPSJzaGFwZTUyMTItNyIgdHJhbnNmb3JtPSJ0cmFuc2xhdGUoNi4wMTM5OSwtMjEuMTI0MSkiPiYjeGE7CQkJPHRpdGxlIGlkPSJ0aXRsZTU4MDYyIj5TaGVldC41MjEyPC90aXRsZT4mI3hhOwkJCTxyZWN0IGlkPSJyZWN0NTgwNjQiIHg9IjAiIHk9IjY3Ljc1IiBzdHlsZT0iZmlsbDojQjhENDMyOyIgd2lkdGg9IjYzLjE1IiBoZWlnaHQ9IjEwLjIiLz4mI3hhOwkJPC9nPiYjeGE7CQk8ZyBpZD0ic2hhcGU1MjEzLTkiIHRyYW5zZm9ybT0idHJhbnNsYXRlKDYuMDEzOTksLTM2LjQyMSkiPiYjeGE7CQkJPHRpdGxlIGlkPSJ0aXRsZTU4MDY3Ij5TaGVldC41MjEzPC90aXRsZT4mI3hhOwkJCTxyZWN0IGlkPSJyZWN0NTgwNjkiIHg9IjAiIHk9IjY3Ljc1IiBzdHlsZT0iZmlsbDojRkZGRkZGOyIgd2lkdGg9IjYzLjE1IiBoZWlnaHQ9IjEwLjIiLz4mI3hhOwkJPC9nPiYjeGE7CQk8ZyBpZD0ic2hhcGU1MjE0LTExIiB0cmFuc2Zvcm09InRyYW5zbGF0ZSg2LjAxMzk5LC01LjgyNzMpIj4mI3hhOwkJCTx0aXRsZSBpZD0idGl0bGU1ODA3MiI+U2hlZXQuNTIxNDwvdGl0bGU+JiN4YTsJCQk8cmVjdCBpZD0icmVjdDU4MDc0IiB4PSIwIiB5PSI2Ny43NSIgc3R5bGU9ImZpbGw6I0I4RDQzMjsiIHdpZHRoPSI2My4xNSIgaGVpZ2h0PSIxMC4yIi8+JiN4YTsJCTwvZz4mI3hhOwkJPGcgaWQ9InNoYXBlNTIxNS0xMyIgdHJhbnNmb3JtPSJ0cmFuc2xhdGUoMCwtMC41ODI2MDUpIj4mI3hhOwkJCTx0aXRsZSBpZD0idGl0bGU1ODA3NyI+U2hlZXQuNTIxNTwvdGl0bGU+JiN4YTsJCQk8cGF0aCBpZD0icGF0aDU4MDc5IiBpbmtzY2FwZTpjb25uZWN0b3ItY3VydmF0dXJlPSIwIiBzdHlsZT0iZmlsbDojRkZGRkZGO2ZpbGwtb3BhY2l0eTowLjI7IiBkPSJNMy4wMSwxNS44OCAgICAgQzEuMzUsMTUuODgsMCwxNy4xOSwwLDE4Ljh2MTAuNjN2NC44MXY0MC43OWMwLDEuNiwxLjM1LDIuOTIsMy4wMSwyLjkyaDMuM2w1OS4yNC02Mi4wN0gzLjAxeiIvPiYjeGE7CQk8L2c+JiN4YTsJPC9nPiYjeGE7PC9nPiYjeGE7PC9zdmc+;shadow=0;sketch=0;fillStyle=solid;fontSize=9;fontColor=#FFFFFF;fillColor=#FFFFFF;" parent="1" vertex="1">
          <mxGeometry x="676.98" y="498" width="55.04" height="46.24" as="geometry" />
        </mxCell>
        <mxCell id="pQ5sCnLRhXGrllm_cWw9-21" value="secret&lt;br style=&quot;font-size: 9px;&quot;&gt;public-storage-access-key" style="sketch=0;aspect=fixed;html=1;points=[];align=center;image;fontSize=9;image=img/lib/mscae/Key_Vaults.svg;shadow=0;labelBackgroundColor=none;fillStyle=solid;fontColor=#FFFFFF;strokeWidth=3;fillColor=#FFFFFF;" parent="1" vertex="1">
          <mxGeometry x="514.5" y="371" width="57" height="59.38" as="geometry" />
        </mxCell>
        <mxCell id="pQ5sCnLRhXGrllm_cWw9-22" value="secret&lt;br style=&quot;font-size: 9px;&quot;&gt;CsoPortal-API-Access" style="sketch=0;aspect=fixed;html=1;points=[];align=center;image;fontSize=9;image=img/lib/mscae/Key_Vaults.svg;shadow=0;labelBackgroundColor=none;fillStyle=solid;fontColor=#FFFFFF;strokeWidth=3;fillColor=#FFFFFF;" parent="1" vertex="1">
          <mxGeometry x="514.5" y="481.18999999999994" width="57" height="59.38" as="geometry" />
        </mxCell>
        <mxCell id="pQ5sCnLRhXGrllm_cWw9-24" value="Ptw Installer&#xa;[name of resource group]" style="shape=image;verticalLabelPosition=middle;labelBackgroundColor=none;verticalAlign=middle;aspect=fixed;imageAspect=0;image=data:image/svg+xml,PHN2ZyB4bWxuczpjYz0iaHR0cDovL2NyZWF0aXZlY29tbW9ucy5vcmcvbnMjIiB4bWxuczpkYz0iaHR0cDovL3B1cmwub3JnL2RjL2VsZW1lbnRzLzEuMS8iIHhtbG5zOmlua3NjYXBlPSJodHRwOi8vd3d3Lmlua3NjYXBlLm9yZy9uYW1lc3BhY2VzL2lua3NjYXBlIiB4bWxuczpyZGY9Imh0dHA6Ly93d3cudzMub3JnLzE5OTkvMDIvMjItcmRmLXN5bnRheC1ucyMiIHhtbG5zOnNvZGlwb2RpPSJodHRwOi8vc29kaXBvZGkuc291cmNlZm9yZ2UubmV0L0RURC9zb2RpcG9kaS0wLmR0ZCIgeG1sbnM6c3ZnPSJodHRwOi8vd3d3LnczLm9yZy8yMDAwL3N2ZyIgeG1sbnM9Imh0dHA6Ly93d3cudzMub3JnLzIwMDAvc3ZnIiB4bWxuczp4bGluaz0iaHR0cDovL3d3dy53My5vcmcvMTk5OS94bGluayIgdmVyc2lvbj0iMS4xIiBpZD0ic3ZnNTk4MjciIGlua3NjYXBlOnZlcnNpb249IjAuOTIuMyAoMjQwNTU0NiwgMjAxOC0wMy0xMSkiIHNvZGlwb2RpOmRvY25hbWU9ImF6dXJlX3BvcnRhbF9hbGxfcmVzb3VyY2VzLnN2ZyIgeD0iMHB4IiB5PSIwcHgiIHZpZXdCb3g9IjAgMCAyNS4xNCAyNS4xNCIgc3R5bGU9ImVuYWJsZS1iYWNrZ3JvdW5kOm5ldyAwIDAgMjUuMTQgMjUuMTQ7IiB4bWw6c3BhY2U9InByZXNlcnZlIj4mI3hhOzxzb2RpcG9kaTpuYW1lZHZpZXcgYm9yZGVyY29sb3I9IiM2NjY2NjYiIGJvcmRlcm9wYWNpdHk9IjEiIGZpdC1tYXJnaW4tYm90dG9tPSIwIiBmaXQtbWFyZ2luLWxlZnQ9IjAiIGZpdC1tYXJnaW4tcmlnaHQ9IjAiIGZpdC1tYXJnaW4tdG9wPSIwIiBncmlkdG9sZXJhbmNlPSIxMCIgZ3VpZGV0b2xlcmFuY2U9IjEwIiBpZD0ibmFtZWR2aWV3NTk4MjkiIGlua3NjYXBlOmN1cnJlbnQtbGF5ZXI9InN2ZzU5ODI3IiBpbmtzY2FwZTpjeD0iMTQuMTg2NDM5IiBpbmtzY2FwZTpjeT0iMTQuMzU2MDgzIiBpbmtzY2FwZTpwYWdlb3BhY2l0eT0iMCIgaW5rc2NhcGU6cGFnZXNoYWRvdz0iMiIgaW5rc2NhcGU6d2luZG93LWhlaWdodD0iMTAxNyIgaW5rc2NhcGU6d2luZG93LW1heGltaXplZD0iMSIgaW5rc2NhcGU6d2luZG93LXdpZHRoPSIxOTIwIiBpbmtzY2FwZTp3aW5kb3cteD0iLTgiIGlua3NjYXBlOndpbmRvdy15PSItOCIgaW5rc2NhcGU6em9vbT0iMTcuMjYyNjAzIiBvYmplY3R0b2xlcmFuY2U9IjEwIiBwYWdlY29sb3I9IiNmZmZmZmYiIHNob3dncmlkPSJmYWxzZSI+JiN4YTsJPC9zb2RpcG9kaTpuYW1lZHZpZXc+JiN4YTs8ZyBpZD0iZzU5ODI1IiB0cmFuc2Zvcm09InRyYW5zbGF0ZSgtMC43NSwtMC43NTAwMDA2NSkiPiYjeGE7CTx0aXRsZSBpZD0idGl0bGU1OTc3NSI+UGFnZS0xPC90aXRsZT4mI3hhOwk8ZyBpZD0iZ3JvdXA0MzA4LTEiIHRyYW5zZm9ybT0idHJhbnNsYXRlKDAuNzUsLTAuNzUpIj4mI3hhOwkJPHRpdGxlIGlkPSJ0aXRsZTU5Nzc3Ij5BenVyZSBQb3J0YWwgLSBBbGwgUmVzb3VyY2VzPC90aXRsZT4mI3hhOwkJPGcgaWQ9InNoYXBlNDMwOS0yIiB0cmFuc2Zvcm09InRyYW5zbGF0ZSgwLC0xNy42NjI3KSI+JiN4YTsJCQk8dGl0bGUgaWQ9InRpdGxlNTk3NzkiPlNoZWV0LjQzMDk8L3RpdGxlPiYjeGE7CQkJPHJlY3QgaWQ9InJlY3Q1OTc4MSIgeT0iMTkuMTYiIHN0eWxlPSJmaWxsOiNCOEQ0MzI7IiB3aWR0aD0iNy40NSIgaGVpZ2h0PSI3LjQ3Ii8+JiN4YTsJCTwvZz4mI3hhOwkJPGcgaWQ9InNoYXBlNDMxMC00IiB0cmFuc2Zvcm09InRyYW5zbGF0ZSg4Ljg1MzA4LC0xNy42NjI3KSI+JiN4YTsJCQk8dGl0bGUgaWQ9InRpdGxlNTk3ODQiPlNoZWV0LjQzMTA8L3RpdGxlPiYjeGE7CQkJPHJlY3QgaWQ9InJlY3Q1OTc4NiIgeD0iMCIgeT0iMTkuMTYiIHN0eWxlPSJmaWxsOiNCOEQ0MzI7IiB3aWR0aD0iNy40NSIgaGVpZ2h0PSI3LjQ3Ii8+JiN4YTsJCTwvZz4mI3hhOwkJPGcgaWQ9InNoYXBlNDMxMS02IiB0cmFuc2Zvcm09InRyYW5zbGF0ZSgxNy42NjI3LC0xNy42NjI3KSI+JiN4YTsJCQk8dGl0bGUgaWQ9InRpdGxlNTk3ODkiPlNoZWV0LjQzMTE8L3RpdGxlPiYjeGE7CQkJPHJlY3QgaWQ9InJlY3Q1OTc5MSIgeD0iMCIgeT0iMTkuMTYiIHN0eWxlPSJmaWxsOiNCOEQ0MzI7IiB3aWR0aD0iNy40NSIgaGVpZ2h0PSI3LjQ3Ii8+JiN4YTsJCTwvZz4mI3hhOwkJPGcgaWQ9InNoYXBlNDMxMi04IiB0cmFuc2Zvcm09InRyYW5zbGF0ZSgwLjAyMTczODcsLTguODMxMzUpIj4mI3hhOwkJCTx0aXRsZSBpZD0idGl0bGU1OTc5NCI+U2hlZXQuNDMxMjwvdGl0bGU+JiN4YTsJCQk8cmVjdCBpZD0icmVjdDU5Nzk2IiB4PSIwIiB5PSIxOS4xNiIgc3R5bGU9ImZpbGw6I0I4RDQzMjsiIHdpZHRoPSI3LjQ1IiBoZWlnaHQ9IjcuNDciLz4mI3hhOwkJPC9nPiYjeGE7CQk8ZyBpZD0ic2hhcGU0MzEzLTEwIiB0cmFuc2Zvcm09InRyYW5zbGF0ZSg4Ljg1MzA4LC04LjgzMTM1KSI+JiN4YTsJCQk8dGl0bGUgaWQ9InRpdGxlNTk3OTkiPlNoZWV0LjQzMTM8L3RpdGxlPiYjeGE7CQkJPHJlY3QgaWQ9InJlY3Q1OTgwMSIgeD0iMCIgeT0iMTkuMTYiIHN0eWxlPSJmaWxsOiNCOEQ0MzI7IiB3aWR0aD0iNy40NSIgaGVpZ2h0PSI3LjQ3Ii8+JiN4YTsJCTwvZz4mI3hhOwkJPGcgaWQ9InNoYXBlNDMxNC0xMiIgdHJhbnNmb3JtPSJ0cmFuc2xhdGUoMTcuNjg0NCwtOC44MzEzNSkiPiYjeGE7CQkJPHRpdGxlIGlkPSJ0aXRsZTU5ODA0Ij5TaGVldC40MzE0PC90aXRsZT4mI3hhOwkJCTxyZWN0IGlkPSJyZWN0NTk4MDYiIHg9IjAiIHk9IjE5LjE2IiBzdHlsZT0iZmlsbDojQjhENDMyOyIgd2lkdGg9IjcuNDUiIGhlaWdodD0iNy40NyIvPiYjeGE7CQk8L2c+JiN4YTsJCTxnIGlkPSJzaGFwZTQzMTUtMTQiIHRyYW5zZm9ybT0idHJhbnNsYXRlKDAuMDIxNzM4NykiPiYjeGE7CQkJPHRpdGxlIGlkPSJ0aXRsZTU5ODA5Ij5TaGVldC40MzE1PC90aXRsZT4mI3hhOwkJCTxyZWN0IGlkPSJyZWN0NTk4MTEiIHg9IjAiIHk9IjE5LjE2IiBzdHlsZT0iZmlsbDojQjhENDMyOyIgd2lkdGg9IjcuNDUiIGhlaWdodD0iNy40NyIvPiYjeGE7CQk8L2c+JiN4YTsJCTxnIGlkPSJzaGFwZTQzMTYtMTYiIHRyYW5zZm9ybT0idHJhbnNsYXRlKDguODUzMDgpIj4mI3hhOwkJCTx0aXRsZSBpZD0idGl0bGU1OTgxNCI+U2hlZXQuNDMxNjwvdGl0bGU+JiN4YTsJCQk8cmVjdCBpZD0icmVjdDU5ODE2IiB4PSIwIiB5PSIxOS4xNiIgc3R5bGU9ImZpbGw6I0I4RDQzMjsiIHdpZHRoPSI3LjQ1IiBoZWlnaHQ9IjcuNDciLz4mI3hhOwkJPC9nPiYjeGE7CQk8ZyBpZD0ic2hhcGU0MzE3LTE4IiB0cmFuc2Zvcm09InRyYW5zbGF0ZSgxNy42ODQ0KSI+JiN4YTsJCQk8dGl0bGUgaWQ9InRpdGxlNTk4MTkiPlNoZWV0LjQzMTc8L3RpdGxlPiYjeGE7CQkJPHJlY3QgaWQ9InJlY3Q1OTgyMSIgeD0iMCIgeT0iMTkuMTYiIHN0eWxlPSJmaWxsOiNCOEQ0MzI7IiB3aWR0aD0iNy40NSIgaGVpZ2h0PSI3LjQ3Ii8+JiN4YTsJCTwvZz4mI3hhOwk8L2c+JiN4YTs8L2c+JiN4YTs8L3N2Zz4=;shadow=0;sketch=0;fillStyle=solid;fontSize=13;fontColor=#FFFFFF;strokeWidth=3;fillColor=#FFFFFF;imageBackground=none;labelPosition=right;align=left;fontStyle=0" parent="1" vertex="1">
          <mxGeometry x="476" y="250" width="41" height="41" as="geometry" />
        </mxCell>
        <mxCell id="pQ5sCnLRhXGrllm_cWw9-26" value="" style="rounded=1;whiteSpace=wrap;html=1;shadow=0;strokeWidth=2;fillColor=#8BC63E;fontSize=12;fontColor=#FFFFFF;align=left;strokeColor=none;arcSize=3;labelPosition=right;verticalLabelPosition=middle;verticalAlign=middle;opacity=50;" parent="1" vertex="1">
          <mxGeometry x="1014" y="221" width="676" height="420" as="geometry" />
        </mxCell>
        <mxCell id="pQ5sCnLRhXGrllm_cWw9-27" value="Deployable resources" style="rounded=1;whiteSpace=wrap;html=1;shadow=0;strokeWidth=2;fillColor=none;fontSize=12;fontColor=#FFFFFF;align=center;strokeColor=#FFFFFF;arcSize=6;labelPosition=center;verticalLabelPosition=top;verticalAlign=bottom;fontStyle=1" parent="1" vertex="1">
          <mxGeometry x="1177" y="350" width="313" height="241" as="geometry" />
        </mxCell>
        <mxCell id="pQ5sCnLRhXGrllm_cWw9-28" value="Availability set" style="rounded=1;whiteSpace=wrap;html=1;shadow=0;strokeWidth=2;fillColor=none;fontSize=11;fontColor=#FFFFFF;align=center;strokeColor=#FFFFFF;dashed=1;verticalAlign=top;arcSize=8;" parent="1" vertex="1">
          <mxGeometry x="1187" y="360" width="293" height="222" as="geometry" />
        </mxCell>
        <mxCell id="pQ5sCnLRhXGrllm_cWw9-29" value="Dependant resources" style="rounded=1;whiteSpace=wrap;html=1;shadow=0;strokeWidth=2;fillColor=none;fontSize=12;fontColor=#FFFFFF;align=center;strokeColor=#FFFFFF;labelPosition=center;verticalLabelPosition=top;verticalAlign=bottom;fontStyle=1;arcSize=12;" parent="1" vertex="1">
          <mxGeometry x="1034" y="350" width="134" height="240" as="geometry" />
        </mxCell>
        <mxCell id="pQ5sCnLRhXGrllm_cWw9-30" value="Seeding data" style="rounded=1;whiteSpace=wrap;html=1;shadow=0;strokeWidth=2;fillColor=none;fontSize=12;fontColor=#FFFFFF;align=center;strokeColor=#FFFFFF;arcSize=9;labelPosition=center;verticalLabelPosition=top;verticalAlign=bottom;fontStyle=1" parent="1" vertex="1">
          <mxGeometry x="1505" y="350" width="160" height="241" as="geometry" />
        </mxCell>
        <mxCell id="pQ5sCnLRhXGrllm_cWw9-31" value="" style="endArrow=classic;html=1;rounded=1;fontSize=9;fontColor=#FFFFFF;exitX=0.5;exitY=1;exitDx=0;exitDy=0;entryX=0.5;entryY=0;entryDx=0;entryDy=0;strokeColor=#CCCCCC;jumpSize=10;arcSize=26;endSize=6;startSize=5;" parent="1" source="pQ5sCnLRhXGrllm_cWw9-32" target="pQ5sCnLRhXGrllm_cWw9-33" edge="1">
          <mxGeometry width="50" height="50" relative="1" as="geometry">
            <mxPoint x="1267" y="428.34" as="sourcePoint" />
            <mxPoint x="1317" y="378.34" as="targetPoint" />
          </mxGeometry>
        </mxCell>
        <mxCell id="pQ5sCnLRhXGrllm_cWw9-32" value="storage account&#xa;stptwinstaller" style="shape=image;verticalLabelPosition=bottom;verticalAlign=top;imageAspect=0;aspect=fixed;image=data:image/svg+xml,PHN2ZyB4bWxuczpkYz0iaHR0cDovL3B1cmwub3JnL2RjL2VsZW1lbnRzLzEuMS8iIHhtbG5zOmNjPSJodHRwOi8vY3JlYXRpdmVjb21tb25zLm9yZy9ucyMiIHhtbG5zOnJkZj0iaHR0cDovL3d3dy53My5vcmcvMTk5OS8wMi8yMi1yZGYtc3ludGF4LW5zIyIgeG1sbnM6c3ZnPSJodHRwOi8vd3d3LnczLm9yZy8yMDAwL3N2ZyIgeG1sbnM9Imh0dHA6Ly93d3cudzMub3JnLzIwMDAvc3ZnIiB4bWxuczpzb2RpcG9kaT0iaHR0cDovL3NvZGlwb2RpLnNvdXJjZWZvcmdlLm5ldC9EVEQvc29kaXBvZGktMC5kdGQiIHhtbG5zOmlua3NjYXBlPSJodHRwOi8vd3d3Lmlua3NjYXBlLm9yZy9uYW1lc3BhY2VzL2lua3NjYXBlIiB2ZXJzaW9uPSIxLjEiIGlkPSJMYXllcl8xIiB4PSIwcHgiIHk9IjBweCIgd2lkdGg9IjUwIiBoZWlnaHQ9IjQyLjkwMDAwMiIgdmlld0JveD0iMCAwIDUwIDQyLjkwMDAwMiIgZW5hYmxlLWJhY2tncm91bmQ9Im5ldyAwIDAgNTAgNTAiIHhtbDpzcGFjZT0icHJlc2VydmUiIHNvZGlwb2RpOmRvY25hbWU9InN0b3JhZ2VfYWNjb3VudHNfY2xhc3NpYy5zdmciIGlua3NjYXBlOnZlcnNpb249IjAuOTIuMyAoMjQwNTU0NiwgMjAxOC0wMy0xMSkiPjxtZXRhZGF0YSBpZD0ibWV0YWRhdGExMDgwOSI+PHJkZjpSREY+PGNjOldvcmsgcmRmOmFib3V0PSIiPjxkYzpmb3JtYXQ+aW1hZ2Uvc3ZnK3htbDwvZGM6Zm9ybWF0PjxkYzp0eXBlIHJkZjpyZXNvdXJjZT0iaHR0cDovL3B1cmwub3JnL2RjL2RjbWl0eXBlL1N0aWxsSW1hZ2UiLz48ZGM6dGl0bGUvPjwvY2M6V29yaz48L3JkZjpSREY+PC9tZXRhZGF0YT48ZGVmcyBpZD0iZGVmczEwODA3Ii8+PHNvZGlwb2RpOm5hbWVkdmlldyBwYWdlY29sb3I9IiNmZmZmZmYiIGJvcmRlcmNvbG9yPSIjNjY2NjY2IiBib3JkZXJvcGFjaXR5PSIxIiBvYmplY3R0b2xlcmFuY2U9IjEwIiBncmlkdG9sZXJhbmNlPSIxMCIgZ3VpZGV0b2xlcmFuY2U9IjEwIiBpbmtzY2FwZTpwYWdlb3BhY2l0eT0iMCIgaW5rc2NhcGU6cGFnZXNoYWRvdz0iMiIgaW5rc2NhcGU6d2luZG93LXdpZHRoPSIxOTIwIiBpbmtzY2FwZTp3aW5kb3ctaGVpZ2h0PSIxMDE3IiBpZD0ibmFtZWR2aWV3MTA4MDUiIHNob3dncmlkPSJmYWxzZSIgZml0LW1hcmdpbi10b3A9IjAiIGZpdC1tYXJnaW4tbGVmdD0iMCIgZml0LW1hcmdpbi1yaWdodD0iMCIgZml0LW1hcmdpbi1ib3R0b209IjAiIGlua3NjYXBlOnpvb209IjE3IiBpbmtzY2FwZTpjeD0iMjUiIGlua3NjYXBlOmN5PSIyMiIgaW5rc2NhcGU6d2luZG93LXg9Ii04IiBpbmtzY2FwZTp3aW5kb3cteT0iLTgiIGlua3NjYXBlOndpbmRvdy1tYXhpbWl6ZWQ9IjEiIGlua3NjYXBlOmN1cnJlbnQtbGF5ZXI9IkxheWVyXzEiLz4mI3hhOzxwYXRoIGQ9Im0gMCw0MSBjIDAsMSAwLjgsMS45IDEuOCwxLjkgaCA0Ni4zIGMgMSwwIDEuOSwtMC44IDEuOSwtMS45IFYgNy45IEggMCBaIiBpZD0icGF0aDEwNzk0IiBpbmtzY2FwZTpjb25uZWN0b3ItY3VydmF0dXJlPSIwIiBzdHlsZT0iZmlsbDojNTliNGQ5Ii8+JiN4YTs8cGF0aCBkPSJNIDQ4LjEsMCBIIDEuOCBDIDAuOCwwIDAsMC45IDAsMS45IHYgNiBoIDUwIHYgLTYgYyAwLC0xIC0wLjgsLTEuNiAtMS45LC0xLjYiIGlkPSJwYXRoMTA3OTYiIGlua3NjYXBlOmNvbm5lY3Rvci1jdXJ2YXR1cmU9IjAiIHN0eWxlPSJmaWxsOiMwMDcyYzYiLz4mI3hhOzxyZWN0IHg9IjQiIHk9IjIxLjQiIHdpZHRoPSI0MiIgaGVpZ2h0PSI3IiBpZD0icmVjdDEwNzk4IiBzdHlsZT0iZmlsbDojMDA3MmM2Ii8+JiN4YTs8cmVjdCB4PSI0IiB5PSIxMC45IiB3aWR0aD0iNDIiIGhlaWdodD0iNyIgaWQ9InJlY3QxMDgwMCIgc3R5bGU9ImZpbGw6I2ZmZmZmZiIvPiYjeGE7PHJlY3QgeD0iNCIgeT0iMzEuOSIgd2lkdGg9IjQyIiBoZWlnaHQ9IjciIGlkPSJyZWN0MTA4MDIiIHN0eWxlPSJmaWxsOiMwMDcyYzYiLz4mI3hhOzwvc3ZnPg==;shadow=0;labelBackgroundColor=none;sketch=0;fillStyle=solid;fontSize=9;fontColor=#FFFFFF;fillColor=#FFFFFF;spacing=0;imageBackground=none;" parent="1" vertex="1">
          <mxGeometry x="1229.8899999999999" y="391.91" width="65.22" height="56.09" as="geometry" />
        </mxCell>
        <mxCell id="pQ5sCnLRhXGrllm_cWw9-33" value="blob container&#xa;installation-public&#xa;" style="shape=image;verticalLabelPosition=bottom;labelBackgroundColor=none;verticalAlign=top;aspect=fixed;imageAspect=0;image=data:image/svg+xml,PHN2ZyB4bWxuczpjYz0iaHR0cDovL2NyZWF0aXZlY29tbW9ucy5vcmcvbnMjIiB4bWxuczpkYz0iaHR0cDovL3B1cmwub3JnL2RjL2VsZW1lbnRzLzEuMS8iIHhtbG5zOmlua3NjYXBlPSJodHRwOi8vd3d3Lmlua3NjYXBlLm9yZy9uYW1lc3BhY2VzL2lua3NjYXBlIiB4bWxuczpyZGY9Imh0dHA6Ly93d3cudzMub3JnLzE5OTkvMDIvMjItcmRmLXN5bnRheC1ucyMiIHhtbG5zOnNvZGlwb2RpPSJodHRwOi8vc29kaXBvZGkuc291cmNlZm9yZ2UubmV0L0RURC9zb2RpcG9kaS0wLmR0ZCIgeG1sbnM6c3ZnPSJodHRwOi8vd3d3LnczLm9yZy8yMDAwL3N2ZyIgeG1sbnM9Imh0dHA6Ly93d3cudzMub3JnLzIwMDAvc3ZnIiB4bWxuczp4bGluaz0iaHR0cDovL3d3dy53My5vcmcvMTk5OS94bGluayIgdmVyc2lvbj0iMS4xIiBpZD0ic3ZnNTgwODUiIGlua3NjYXBlOnZlcnNpb249IjAuOTIuMyAoMjQwNTU0NiwgMjAxOC0wMy0xMSkiIHNvZGlwb2RpOmRvY25hbWU9ImF6dXJlX2ZpbGVzX3N0b3JhZ2Uuc3ZnIiB4PSIwcHgiIHk9IjBweCIgdmlld0JveD0iMCAwIDc1LjE3IDYyLjY1IiBzdHlsZT0iZW5hYmxlLWJhY2tncm91bmQ6bmV3IDAgMCA3NS4xNyA2Mi42NTsiIHhtbDpzcGFjZT0icHJlc2VydmUiPiYjeGE7PHNvZGlwb2RpOm5hbWVkdmlldyBib3JkZXJjb2xvcj0iIzY2NjY2NiIgYm9yZGVyb3BhY2l0eT0iMSIgZml0LW1hcmdpbi1ib3R0b209IjAiIGZpdC1tYXJnaW4tbGVmdD0iMCIgZml0LW1hcmdpbi1yaWdodD0iMCIgZml0LW1hcmdpbi10b3A9IjAiIGdyaWR0b2xlcmFuY2U9IjEwIiBndWlkZXRvbGVyYW5jZT0iMTAiIGlkPSJuYW1lZHZpZXc1ODA4NyIgaW5rc2NhcGU6Y3VycmVudC1sYXllcj0ic3ZnNTgwODUiIGlua3NjYXBlOmN4PSIxMDcuNDEzOTciIGlua3NjYXBlOmN5PSIyNS4yNzAzOCIgaW5rc2NhcGU6cGFnZW9wYWNpdHk9IjAiIGlua3NjYXBlOnBhZ2VzaGFkb3c9IjIiIGlua3NjYXBlOndpbmRvdy1oZWlnaHQ9IjEwMTciIGlua3NjYXBlOndpbmRvdy1tYXhpbWl6ZWQ9IjEiIGlua3NjYXBlOndpbmRvdy13aWR0aD0iMTkyMCIgaW5rc2NhcGU6d2luZG93LXg9Ii04IiBpbmtzY2FwZTp3aW5kb3cteT0iLTgiIGlua3NjYXBlOnpvb209IjQuMTcxMTY5OSIgb2JqZWN0dG9sZXJhbmNlPSIxMCIgcGFnZWNvbG9yPSIjZmZmZmZmIiBzaG93Z3JpZD0iZmFsc2UiPiYjeGE7CTwvc29kaXBvZGk6bmFtZWR2aWV3PiYjeGE7PGcgaWQ9Imc1ODA4MyIgdHJhbnNmb3JtPSJ0cmFuc2xhdGUoLTcuNjUwMTcwMywtNy42NDczOTUpIj4mI3hhOwk8dGl0bGUgaWQ9InRpdGxlNTgwNDYiPlBhZ2UtMTwvdGl0bGU+JiN4YTsJPGcgaWQ9Imdyb3VwNTIwOS0xIiB0cmFuc2Zvcm09InRyYW5zbGF0ZSg3LjY1LC03LjY1KSI+JiN4YTsJCTx0aXRsZSBpZD0idGl0bGU1ODA0OCI+QXp1cmUgRmlsZXMgU3RvcmFnZTwvdGl0bGU+JiN4YTsJCTxnIGlkPSJzaGFwZTUyMTAtMiI+JiN4YTsJCQk8dGl0bGUgaWQ9InRpdGxlNTgwNTAiPlNoZWV0LjUyMTA8L3RpdGxlPiYjeGE7CQkJPHBhdGggaWQ9InBhdGg1ODA1MiIgaW5rc2NhcGU6Y29ubmVjdG9yLWN1cnZhdHVyZT0iMCIgc3R5bGU9ImZpbGw6I0EwQTFBMjsiIGQ9Ik0wLDc1LjE4YzAsMS40NSwxLjIsMi43NywyLjcxLDIuNzdoNjkuNjEgICAgIGMxLjUsMCwyLjg1LTEuMTcsMi44NS0yLjc3VjI2Ljk1SDBWNzUuMTh6Ii8+JiN4YTsJCTwvZz4mI3hhOwkJPGcgaWQ9InNoYXBlNTIxMS00IiB0cmFuc2Zvcm09InRyYW5zbGF0ZSgwLC01MC45OTExKSI+JiN4YTsJCQk8dGl0bGUgaWQ9InRpdGxlNTgwNTUiPlNoZWV0LjUyMTE8L3RpdGxlPiYjeGE7CQkJPHBhdGggaWQ9InBhdGg1ODA1NyIgaW5rc2NhcGU6Y29ubmVjdG9yLWN1cnZhdHVyZT0iMCIgc3R5bGU9ImZpbGw6IzdBN0E3QTsiIGQ9Ik03Mi4zMiw2Ni40NEgyLjcxQzEuMiw2Ni40NCwwLDY3Ljc1LDAsNjkuMiAgICAgdjguNzVoNzUuMTd2LTguNzRjMC0xLjQ2LTEuMjItMi42MS0yLjg3LTIuNjFMNzIuMzIsNjYuNDR6Ii8+JiN4YTsJCQk8cGF0aCBpZD0icGF0aDU4MDU5IiBpbmtzY2FwZTpjb25uZWN0b3ItY3VydmF0dXJlPSIwIiBzdHlsZT0iZmlsbDpub25lOyIgZD0iTTcyLjMyLDY2LjQ0SDIuNzFDMS4yLDY2LjQ0LDAsNjcuNzUsMCw2OS4ydjguNzUgICAgIGg3NS4xN3YtOC43NGMwLTEuNDYtMS4yMi0yLjYxLTIuODctMi42MSIvPiYjeGE7CQk8L2c+JiN4YTsJCTxnIGlkPSJzaGFwZTUyMTItNyIgdHJhbnNmb3JtPSJ0cmFuc2xhdGUoNi4wMTM5OSwtMjEuMTI0MSkiPiYjeGE7CQkJPHRpdGxlIGlkPSJ0aXRsZTU4MDYyIj5TaGVldC41MjEyPC90aXRsZT4mI3hhOwkJCTxyZWN0IGlkPSJyZWN0NTgwNjQiIHg9IjAiIHk9IjY3Ljc1IiBzdHlsZT0iZmlsbDojQjhENDMyOyIgd2lkdGg9IjYzLjE1IiBoZWlnaHQ9IjEwLjIiLz4mI3hhOwkJPC9nPiYjeGE7CQk8ZyBpZD0ic2hhcGU1MjEzLTkiIHRyYW5zZm9ybT0idHJhbnNsYXRlKDYuMDEzOTksLTM2LjQyMSkiPiYjeGE7CQkJPHRpdGxlIGlkPSJ0aXRsZTU4MDY3Ij5TaGVldC41MjEzPC90aXRsZT4mI3hhOwkJCTxyZWN0IGlkPSJyZWN0NTgwNjkiIHg9IjAiIHk9IjY3Ljc1IiBzdHlsZT0iZmlsbDojRkZGRkZGOyIgd2lkdGg9IjYzLjE1IiBoZWlnaHQ9IjEwLjIiLz4mI3hhOwkJPC9nPiYjeGE7CQk8ZyBpZD0ic2hhcGU1MjE0LTExIiB0cmFuc2Zvcm09InRyYW5zbGF0ZSg2LjAxMzk5LC01LjgyNzMpIj4mI3hhOwkJCTx0aXRsZSBpZD0idGl0bGU1ODA3MiI+U2hlZXQuNTIxNDwvdGl0bGU+JiN4YTsJCQk8cmVjdCBpZD0icmVjdDU4MDc0IiB4PSIwIiB5PSI2Ny43NSIgc3R5bGU9ImZpbGw6I0I4RDQzMjsiIHdpZHRoPSI2My4xNSIgaGVpZ2h0PSIxMC4yIi8+JiN4YTsJCTwvZz4mI3hhOwkJPGcgaWQ9InNoYXBlNTIxNS0xMyIgdHJhbnNmb3JtPSJ0cmFuc2xhdGUoMCwtMC41ODI2MDUpIj4mI3hhOwkJCTx0aXRsZSBpZD0idGl0bGU1ODA3NyI+U2hlZXQuNTIxNTwvdGl0bGU+JiN4YTsJCQk8cGF0aCBpZD0icGF0aDU4MDc5IiBpbmtzY2FwZTpjb25uZWN0b3ItY3VydmF0dXJlPSIwIiBzdHlsZT0iZmlsbDojRkZGRkZGO2ZpbGwtb3BhY2l0eTowLjI7IiBkPSJNMy4wMSwxNS44OCAgICAgQzEuMzUsMTUuODgsMCwxNy4xOSwwLDE4Ljh2MTAuNjN2NC44MXY0MC43OWMwLDEuNiwxLjM1LDIuOTIsMy4wMSwyLjkyaDMuM2w1OS4yNC02Mi4wN0gzLjAxeiIvPiYjeGE7CQk8L2c+JiN4YTsJPC9nPiYjeGE7PC9nPiYjeGE7PC9zdmc+;shadow=0;sketch=0;fillStyle=solid;fontSize=9;fontColor=#FFFFFF;fillColor=#FFFFFF;" parent="1" vertex="1">
          <mxGeometry x="1234.98" y="498" width="55.04" height="46.24" as="geometry" />
        </mxCell>
        <mxCell id="pQ5sCnLRhXGrllm_cWw9-34" value="secret&lt;br style=&quot;font-size: 9px;&quot;&gt;public-storage-access-key" style="sketch=0;aspect=fixed;html=1;points=[];align=center;image;fontSize=9;image=img/lib/mscae/Key_Vaults.svg;shadow=0;labelBackgroundColor=none;fillStyle=solid;fontColor=#FFFFFF;strokeWidth=3;fillColor=#FFFFFF;" parent="1" vertex="1">
          <mxGeometry x="1072.5" y="371" width="57" height="59.38" as="geometry" />
        </mxCell>
        <mxCell id="pQ5sCnLRhXGrllm_cWw9-35" value="secret&lt;br style=&quot;font-size: 9px;&quot;&gt;CsoPortal-API-Access" style="sketch=0;aspect=fixed;html=1;points=[];align=center;image;fontSize=9;image=img/lib/mscae/Key_Vaults.svg;shadow=0;labelBackgroundColor=none;fillStyle=solid;fontColor=#FFFFFF;strokeWidth=3;fillColor=#FFFFFF;" parent="1" vertex="1">
          <mxGeometry x="1072.5" y="481.18999999999994" width="57" height="59.38" as="geometry" />
        </mxCell>
        <mxCell id="pQ5sCnLRhXGrllm_cWw9-36" value="Ptw Installer&#xa;[name of resource group]" style="shape=image;verticalLabelPosition=middle;labelBackgroundColor=none;verticalAlign=middle;aspect=fixed;imageAspect=0;image=data:image/svg+xml,PHN2ZyB4bWxuczpjYz0iaHR0cDovL2NyZWF0aXZlY29tbW9ucy5vcmcvbnMjIiB4bWxuczpkYz0iaHR0cDovL3B1cmwub3JnL2RjL2VsZW1lbnRzLzEuMS8iIHhtbG5zOmlua3NjYXBlPSJodHRwOi8vd3d3Lmlua3NjYXBlLm9yZy9uYW1lc3BhY2VzL2lua3NjYXBlIiB4bWxuczpyZGY9Imh0dHA6Ly93d3cudzMub3JnLzE5OTkvMDIvMjItcmRmLXN5bnRheC1ucyMiIHhtbG5zOnNvZGlwb2RpPSJodHRwOi8vc29kaXBvZGkuc291cmNlZm9yZ2UubmV0L0RURC9zb2RpcG9kaS0wLmR0ZCIgeG1sbnM6c3ZnPSJodHRwOi8vd3d3LnczLm9yZy8yMDAwL3N2ZyIgeG1sbnM9Imh0dHA6Ly93d3cudzMub3JnLzIwMDAvc3ZnIiB4bWxuczp4bGluaz0iaHR0cDovL3d3dy53My5vcmcvMTk5OS94bGluayIgdmVyc2lvbj0iMS4xIiBpZD0ic3ZnNTk4MjciIGlua3NjYXBlOnZlcnNpb249IjAuOTIuMyAoMjQwNTU0NiwgMjAxOC0wMy0xMSkiIHNvZGlwb2RpOmRvY25hbWU9ImF6dXJlX3BvcnRhbF9hbGxfcmVzb3VyY2VzLnN2ZyIgeD0iMHB4IiB5PSIwcHgiIHZpZXdCb3g9IjAgMCAyNS4xNCAyNS4xNCIgc3R5bGU9ImVuYWJsZS1iYWNrZ3JvdW5kOm5ldyAwIDAgMjUuMTQgMjUuMTQ7IiB4bWw6c3BhY2U9InByZXNlcnZlIj4mI3hhOzxzb2RpcG9kaTpuYW1lZHZpZXcgYm9yZGVyY29sb3I9IiM2NjY2NjYiIGJvcmRlcm9wYWNpdHk9IjEiIGZpdC1tYXJnaW4tYm90dG9tPSIwIiBmaXQtbWFyZ2luLWxlZnQ9IjAiIGZpdC1tYXJnaW4tcmlnaHQ9IjAiIGZpdC1tYXJnaW4tdG9wPSIwIiBncmlkdG9sZXJhbmNlPSIxMCIgZ3VpZGV0b2xlcmFuY2U9IjEwIiBpZD0ibmFtZWR2aWV3NTk4MjkiIGlua3NjYXBlOmN1cnJlbnQtbGF5ZXI9InN2ZzU5ODI3IiBpbmtzY2FwZTpjeD0iMTQuMTg2NDM5IiBpbmtzY2FwZTpjeT0iMTQuMzU2MDgzIiBpbmtzY2FwZTpwYWdlb3BhY2l0eT0iMCIgaW5rc2NhcGU6cGFnZXNoYWRvdz0iMiIgaW5rc2NhcGU6d2luZG93LWhlaWdodD0iMTAxNyIgaW5rc2NhcGU6d2luZG93LW1heGltaXplZD0iMSIgaW5rc2NhcGU6d2luZG93LXdpZHRoPSIxOTIwIiBpbmtzY2FwZTp3aW5kb3cteD0iLTgiIGlua3NjYXBlOndpbmRvdy15PSItOCIgaW5rc2NhcGU6em9vbT0iMTcuMjYyNjAzIiBvYmplY3R0b2xlcmFuY2U9IjEwIiBwYWdlY29sb3I9IiNmZmZmZmYiIHNob3dncmlkPSJmYWxzZSI+JiN4YTsJPC9zb2RpcG9kaTpuYW1lZHZpZXc+JiN4YTs8ZyBpZD0iZzU5ODI1IiB0cmFuc2Zvcm09InRyYW5zbGF0ZSgtMC43NSwtMC43NTAwMDA2NSkiPiYjeGE7CTx0aXRsZSBpZD0idGl0bGU1OTc3NSI+UGFnZS0xPC90aXRsZT4mI3hhOwk8ZyBpZD0iZ3JvdXA0MzA4LTEiIHRyYW5zZm9ybT0idHJhbnNsYXRlKDAuNzUsLTAuNzUpIj4mI3hhOwkJPHRpdGxlIGlkPSJ0aXRsZTU5Nzc3Ij5BenVyZSBQb3J0YWwgLSBBbGwgUmVzb3VyY2VzPC90aXRsZT4mI3hhOwkJPGcgaWQ9InNoYXBlNDMwOS0yIiB0cmFuc2Zvcm09InRyYW5zbGF0ZSgwLC0xNy42NjI3KSI+JiN4YTsJCQk8dGl0bGUgaWQ9InRpdGxlNTk3NzkiPlNoZWV0LjQzMDk8L3RpdGxlPiYjeGE7CQkJPHJlY3QgaWQ9InJlY3Q1OTc4MSIgeT0iMTkuMTYiIHN0eWxlPSJmaWxsOiNCOEQ0MzI7IiB3aWR0aD0iNy40NSIgaGVpZ2h0PSI3LjQ3Ii8+JiN4YTsJCTwvZz4mI3hhOwkJPGcgaWQ9InNoYXBlNDMxMC00IiB0cmFuc2Zvcm09InRyYW5zbGF0ZSg4Ljg1MzA4LC0xNy42NjI3KSI+JiN4YTsJCQk8dGl0bGUgaWQ9InRpdGxlNTk3ODQiPlNoZWV0LjQzMTA8L3RpdGxlPiYjeGE7CQkJPHJlY3QgaWQ9InJlY3Q1OTc4NiIgeD0iMCIgeT0iMTkuMTYiIHN0eWxlPSJmaWxsOiNCOEQ0MzI7IiB3aWR0aD0iNy40NSIgaGVpZ2h0PSI3LjQ3Ii8+JiN4YTsJCTwvZz4mI3hhOwkJPGcgaWQ9InNoYXBlNDMxMS02IiB0cmFuc2Zvcm09InRyYW5zbGF0ZSgxNy42NjI3LC0xNy42NjI3KSI+JiN4YTsJCQk8dGl0bGUgaWQ9InRpdGxlNTk3ODkiPlNoZWV0LjQzMTE8L3RpdGxlPiYjeGE7CQkJPHJlY3QgaWQ9InJlY3Q1OTc5MSIgeD0iMCIgeT0iMTkuMTYiIHN0eWxlPSJmaWxsOiNCOEQ0MzI7IiB3aWR0aD0iNy40NSIgaGVpZ2h0PSI3LjQ3Ii8+JiN4YTsJCTwvZz4mI3hhOwkJPGcgaWQ9InNoYXBlNDMxMi04IiB0cmFuc2Zvcm09InRyYW5zbGF0ZSgwLjAyMTczODcsLTguODMxMzUpIj4mI3hhOwkJCTx0aXRsZSBpZD0idGl0bGU1OTc5NCI+U2hlZXQuNDMxMjwvdGl0bGU+JiN4YTsJCQk8cmVjdCBpZD0icmVjdDU5Nzk2IiB4PSIwIiB5PSIxOS4xNiIgc3R5bGU9ImZpbGw6I0I4RDQzMjsiIHdpZHRoPSI3LjQ1IiBoZWlnaHQ9IjcuNDciLz4mI3hhOwkJPC9nPiYjeGE7CQk8ZyBpZD0ic2hhcGU0MzEzLTEwIiB0cmFuc2Zvcm09InRyYW5zbGF0ZSg4Ljg1MzA4LC04LjgzMTM1KSI+JiN4YTsJCQk8dGl0bGUgaWQ9InRpdGxlNTk3OTkiPlNoZWV0LjQzMTM8L3RpdGxlPiYjeGE7CQkJPHJlY3QgaWQ9InJlY3Q1OTgwMSIgeD0iMCIgeT0iMTkuMTYiIHN0eWxlPSJmaWxsOiNCOEQ0MzI7IiB3aWR0aD0iNy40NSIgaGVpZ2h0PSI3LjQ3Ii8+JiN4YTsJCTwvZz4mI3hhOwkJPGcgaWQ9InNoYXBlNDMxNC0xMiIgdHJhbnNmb3JtPSJ0cmFuc2xhdGUoMTcuNjg0NCwtOC44MzEzNSkiPiYjeGE7CQkJPHRpdGxlIGlkPSJ0aXRsZTU5ODA0Ij5TaGVldC40MzE0PC90aXRsZT4mI3hhOwkJCTxyZWN0IGlkPSJyZWN0NTk4MDYiIHg9IjAiIHk9IjE5LjE2IiBzdHlsZT0iZmlsbDojQjhENDMyOyIgd2lkdGg9IjcuNDUiIGhlaWdodD0iNy40NyIvPiYjeGE7CQk8L2c+JiN4YTsJCTxnIGlkPSJzaGFwZTQzMTUtMTQiIHRyYW5zZm9ybT0idHJhbnNsYXRlKDAuMDIxNzM4NykiPiYjeGE7CQkJPHRpdGxlIGlkPSJ0aXRsZTU5ODA5Ij5TaGVldC40MzE1PC90aXRsZT4mI3hhOwkJCTxyZWN0IGlkPSJyZWN0NTk4MTEiIHg9IjAiIHk9IjE5LjE2IiBzdHlsZT0iZmlsbDojQjhENDMyOyIgd2lkdGg9IjcuNDUiIGhlaWdodD0iNy40NyIvPiYjeGE7CQk8L2c+JiN4YTsJCTxnIGlkPSJzaGFwZTQzMTYtMTYiIHRyYW5zZm9ybT0idHJhbnNsYXRlKDguODUzMDgpIj4mI3hhOwkJCTx0aXRsZSBpZD0idGl0bGU1OTgxNCI+U2hlZXQuNDMxNjwvdGl0bGU+JiN4YTsJCQk8cmVjdCBpZD0icmVjdDU5ODE2IiB4PSIwIiB5PSIxOS4xNiIgc3R5bGU9ImZpbGw6I0I4RDQzMjsiIHdpZHRoPSI3LjQ1IiBoZWlnaHQ9IjcuNDciLz4mI3hhOwkJPC9nPiYjeGE7CQk8ZyBpZD0ic2hhcGU0MzE3LTE4IiB0cmFuc2Zvcm09InRyYW5zbGF0ZSgxNy42ODQ0KSI+JiN4YTsJCQk8dGl0bGUgaWQ9InRpdGxlNTk4MTkiPlNoZWV0LjQzMTc8L3RpdGxlPiYjeGE7CQkJPHJlY3QgaWQ9InJlY3Q1OTgyMSIgeD0iMCIgeT0iMTkuMTYiIHN0eWxlPSJmaWxsOiNCOEQ0MzI7IiB3aWR0aD0iNy40NSIgaGVpZ2h0PSI3LjQ3Ii8+JiN4YTsJCTwvZz4mI3hhOwk8L2c+JiN4YTs8L2c+JiN4YTs8L3N2Zz4=;shadow=0;sketch=0;fillStyle=solid;fontSize=13;fontColor=#FFFFFF;strokeWidth=3;fillColor=#FFFFFF;imageBackground=none;labelPosition=right;align=left;fontStyle=0" parent="1" vertex="1">
          <mxGeometry x="1034" y="250" width="41" height="41" as="geometry" />
        </mxCell>
        <mxCell id="pQ5sCnLRhXGrllm_cWw9-37" value="" style="rounded=1;whiteSpace=wrap;html=1;shadow=0;strokeWidth=2;fillColor=#8BC63E;fontSize=12;fontColor=#FFFFFF;align=left;strokeColor=none;arcSize=3;labelPosition=right;verticalLabelPosition=middle;verticalAlign=middle;opacity=50;" parent="1" vertex="1">
          <mxGeometry x="50" y="760" width="530" height="420" as="geometry" />
        </mxCell>
        <mxCell id="pQ5sCnLRhXGrllm_cWw9-38" value="Deployable resources" style="rounded=1;whiteSpace=wrap;html=1;shadow=0;strokeWidth=2;fillColor=none;fontSize=12;fontColor=#FFFFFF;align=center;strokeColor=#FFFFFF;arcSize=10;labelPosition=center;verticalLabelPosition=top;verticalAlign=bottom;fontStyle=1" parent="1" vertex="1">
          <mxGeometry x="213" y="889" width="171" height="241" as="geometry" />
        </mxCell>
        <mxCell id="pQ5sCnLRhXGrllm_cWw9-39" value="Availability set" style="rounded=1;whiteSpace=wrap;html=1;shadow=0;strokeWidth=2;fillColor=none;fontSize=11;fontColor=#FFFFFF;align=center;strokeColor=#FFFFFF;dashed=1;verticalAlign=top;" parent="1" vertex="1">
          <mxGeometry x="223" y="899" width="151" height="222" as="geometry" />
        </mxCell>
        <mxCell id="pQ5sCnLRhXGrllm_cWw9-40" value="Dependant resources" style="rounded=1;whiteSpace=wrap;html=1;shadow=0;strokeWidth=2;fillColor=none;fontSize=12;fontColor=#FFFFFF;align=center;strokeColor=#FFFFFF;labelPosition=center;verticalLabelPosition=top;verticalAlign=bottom;fontStyle=1;arcSize=12;" parent="1" vertex="1">
          <mxGeometry x="70" y="889" width="134" height="240" as="geometry" />
        </mxCell>
        <mxCell id="pQ5sCnLRhXGrllm_cWw9-41" value="Seeding data" style="rounded=1;whiteSpace=wrap;html=1;shadow=0;strokeWidth=2;fillColor=none;fontSize=12;fontColor=#FFFFFF;align=center;strokeColor=#FFFFFF;arcSize=9;labelPosition=center;verticalLabelPosition=top;verticalAlign=bottom;fontStyle=1" parent="1" vertex="1">
          <mxGeometry x="395" y="889" width="160" height="241" as="geometry" />
        </mxCell>
        <mxCell id="pQ5sCnLRhXGrllm_cWw9-42" value="" style="endArrow=classic;html=1;rounded=1;fontSize=9;fontColor=#FFFFFF;exitX=0.5;exitY=1;exitDx=0;exitDy=0;entryX=0.5;entryY=0;entryDx=0;entryDy=0;strokeColor=#CCCCCC;jumpSize=10;arcSize=26;endSize=6;startSize=5;" parent="1" source="pQ5sCnLRhXGrllm_cWw9-43" target="pQ5sCnLRhXGrllm_cWw9-44" edge="1">
          <mxGeometry width="50" height="50" relative="1" as="geometry">
            <mxPoint x="303" y="967.3399999999999" as="sourcePoint" />
            <mxPoint x="353" y="917.3399999999999" as="targetPoint" />
          </mxGeometry>
        </mxCell>
        <mxCell id="pQ5sCnLRhXGrllm_cWw9-43" value="storage account&#xa;stptwinstaller" style="shape=image;verticalLabelPosition=bottom;verticalAlign=top;imageAspect=0;aspect=fixed;image=data:image/svg+xml,PHN2ZyB4bWxuczpkYz0iaHR0cDovL3B1cmwub3JnL2RjL2VsZW1lbnRzLzEuMS8iIHhtbG5zOmNjPSJodHRwOi8vY3JlYXRpdmVjb21tb25zLm9yZy9ucyMiIHhtbG5zOnJkZj0iaHR0cDovL3d3dy53My5vcmcvMTk5OS8wMi8yMi1yZGYtc3ludGF4LW5zIyIgeG1sbnM6c3ZnPSJodHRwOi8vd3d3LnczLm9yZy8yMDAwL3N2ZyIgeG1sbnM9Imh0dHA6Ly93d3cudzMub3JnLzIwMDAvc3ZnIiB4bWxuczpzb2RpcG9kaT0iaHR0cDovL3NvZGlwb2RpLnNvdXJjZWZvcmdlLm5ldC9EVEQvc29kaXBvZGktMC5kdGQiIHhtbG5zOmlua3NjYXBlPSJodHRwOi8vd3d3Lmlua3NjYXBlLm9yZy9uYW1lc3BhY2VzL2lua3NjYXBlIiB2ZXJzaW9uPSIxLjEiIGlkPSJMYXllcl8xIiB4PSIwcHgiIHk9IjBweCIgd2lkdGg9IjUwIiBoZWlnaHQ9IjQyLjkwMDAwMiIgdmlld0JveD0iMCAwIDUwIDQyLjkwMDAwMiIgZW5hYmxlLWJhY2tncm91bmQ9Im5ldyAwIDAgNTAgNTAiIHhtbDpzcGFjZT0icHJlc2VydmUiIHNvZGlwb2RpOmRvY25hbWU9InN0b3JhZ2VfYWNjb3VudHNfY2xhc3NpYy5zdmciIGlua3NjYXBlOnZlcnNpb249IjAuOTIuMyAoMjQwNTU0NiwgMjAxOC0wMy0xMSkiPjxtZXRhZGF0YSBpZD0ibWV0YWRhdGExMDgwOSI+PHJkZjpSREY+PGNjOldvcmsgcmRmOmFib3V0PSIiPjxkYzpmb3JtYXQ+aW1hZ2Uvc3ZnK3htbDwvZGM6Zm9ybWF0PjxkYzp0eXBlIHJkZjpyZXNvdXJjZT0iaHR0cDovL3B1cmwub3JnL2RjL2RjbWl0eXBlL1N0aWxsSW1hZ2UiLz48ZGM6dGl0bGUvPjwvY2M6V29yaz48L3JkZjpSREY+PC9tZXRhZGF0YT48ZGVmcyBpZD0iZGVmczEwODA3Ii8+PHNvZGlwb2RpOm5hbWVkdmlldyBwYWdlY29sb3I9IiNmZmZmZmYiIGJvcmRlcmNvbG9yPSIjNjY2NjY2IiBib3JkZXJvcGFjaXR5PSIxIiBvYmplY3R0b2xlcmFuY2U9IjEwIiBncmlkdG9sZXJhbmNlPSIxMCIgZ3VpZGV0b2xlcmFuY2U9IjEwIiBpbmtzY2FwZTpwYWdlb3BhY2l0eT0iMCIgaW5rc2NhcGU6cGFnZXNoYWRvdz0iMiIgaW5rc2NhcGU6d2luZG93LXdpZHRoPSIxOTIwIiBpbmtzY2FwZTp3aW5kb3ctaGVpZ2h0PSIxMDE3IiBpZD0ibmFtZWR2aWV3MTA4MDUiIHNob3dncmlkPSJmYWxzZSIgZml0LW1hcmdpbi10b3A9IjAiIGZpdC1tYXJnaW4tbGVmdD0iMCIgZml0LW1hcmdpbi1yaWdodD0iMCIgZml0LW1hcmdpbi1ib3R0b209IjAiIGlua3NjYXBlOnpvb209IjE3IiBpbmtzY2FwZTpjeD0iMjUiIGlua3NjYXBlOmN5PSIyMiIgaW5rc2NhcGU6d2luZG93LXg9Ii04IiBpbmtzY2FwZTp3aW5kb3cteT0iLTgiIGlua3NjYXBlOndpbmRvdy1tYXhpbWl6ZWQ9IjEiIGlua3NjYXBlOmN1cnJlbnQtbGF5ZXI9IkxheWVyXzEiLz4mI3hhOzxwYXRoIGQ9Im0gMCw0MSBjIDAsMSAwLjgsMS45IDEuOCwxLjkgaCA0Ni4zIGMgMSwwIDEuOSwtMC44IDEuOSwtMS45IFYgNy45IEggMCBaIiBpZD0icGF0aDEwNzk0IiBpbmtzY2FwZTpjb25uZWN0b3ItY3VydmF0dXJlPSIwIiBzdHlsZT0iZmlsbDojNTliNGQ5Ii8+JiN4YTs8cGF0aCBkPSJNIDQ4LjEsMCBIIDEuOCBDIDAuOCwwIDAsMC45IDAsMS45IHYgNiBoIDUwIHYgLTYgYyAwLC0xIC0wLjgsLTEuNiAtMS45LC0xLjYiIGlkPSJwYXRoMTA3OTYiIGlua3NjYXBlOmNvbm5lY3Rvci1jdXJ2YXR1cmU9IjAiIHN0eWxlPSJmaWxsOiMwMDcyYzYiLz4mI3hhOzxyZWN0IHg9IjQiIHk9IjIxLjQiIHdpZHRoPSI0MiIgaGVpZ2h0PSI3IiBpZD0icmVjdDEwNzk4IiBzdHlsZT0iZmlsbDojMDA3MmM2Ii8+JiN4YTs8cmVjdCB4PSI0IiB5PSIxMC45IiB3aWR0aD0iNDIiIGhlaWdodD0iNyIgaWQ9InJlY3QxMDgwMCIgc3R5bGU9ImZpbGw6I2ZmZmZmZiIvPiYjeGE7PHJlY3QgeD0iNCIgeT0iMzEuOSIgd2lkdGg9IjQyIiBoZWlnaHQ9IjciIGlkPSJyZWN0MTA4MDIiIHN0eWxlPSJmaWxsOiMwMDcyYzYiLz4mI3hhOzwvc3ZnPg==;shadow=0;labelBackgroundColor=none;sketch=0;fillStyle=solid;fontSize=9;fontColor=#FFFFFF;fillColor=#FFFFFF;spacing=0;imageBackground=none;" parent="1" vertex="1">
          <mxGeometry x="265.89" y="930.9100000000001" width="65.22" height="56.09" as="geometry" />
        </mxCell>
        <mxCell id="pQ5sCnLRhXGrllm_cWw9-44" value="blob container&#xa;installation-public&#xa;" style="shape=image;verticalLabelPosition=bottom;labelBackgroundColor=none;verticalAlign=top;aspect=fixed;imageAspect=0;image=data:image/svg+xml,PHN2ZyB4bWxuczpjYz0iaHR0cDovL2NyZWF0aXZlY29tbW9ucy5vcmcvbnMjIiB4bWxuczpkYz0iaHR0cDovL3B1cmwub3JnL2RjL2VsZW1lbnRzLzEuMS8iIHhtbG5zOmlua3NjYXBlPSJodHRwOi8vd3d3Lmlua3NjYXBlLm9yZy9uYW1lc3BhY2VzL2lua3NjYXBlIiB4bWxuczpyZGY9Imh0dHA6Ly93d3cudzMub3JnLzE5OTkvMDIvMjItcmRmLXN5bnRheC1ucyMiIHhtbG5zOnNvZGlwb2RpPSJodHRwOi8vc29kaXBvZGkuc291cmNlZm9yZ2UubmV0L0RURC9zb2RpcG9kaS0wLmR0ZCIgeG1sbnM6c3ZnPSJodHRwOi8vd3d3LnczLm9yZy8yMDAwL3N2ZyIgeG1sbnM9Imh0dHA6Ly93d3cudzMub3JnLzIwMDAvc3ZnIiB4bWxuczp4bGluaz0iaHR0cDovL3d3dy53My5vcmcvMTk5OS94bGluayIgdmVyc2lvbj0iMS4xIiBpZD0ic3ZnNTgwODUiIGlua3NjYXBlOnZlcnNpb249IjAuOTIuMyAoMjQwNTU0NiwgMjAxOC0wMy0xMSkiIHNvZGlwb2RpOmRvY25hbWU9ImF6dXJlX2ZpbGVzX3N0b3JhZ2Uuc3ZnIiB4PSIwcHgiIHk9IjBweCIgdmlld0JveD0iMCAwIDc1LjE3IDYyLjY1IiBzdHlsZT0iZW5hYmxlLWJhY2tncm91bmQ6bmV3IDAgMCA3NS4xNyA2Mi42NTsiIHhtbDpzcGFjZT0icHJlc2VydmUiPiYjeGE7PHNvZGlwb2RpOm5hbWVkdmlldyBib3JkZXJjb2xvcj0iIzY2NjY2NiIgYm9yZGVyb3BhY2l0eT0iMSIgZml0LW1hcmdpbi1ib3R0b209IjAiIGZpdC1tYXJnaW4tbGVmdD0iMCIgZml0LW1hcmdpbi1yaWdodD0iMCIgZml0LW1hcmdpbi10b3A9IjAiIGdyaWR0b2xlcmFuY2U9IjEwIiBndWlkZXRvbGVyYW5jZT0iMTAiIGlkPSJuYW1lZHZpZXc1ODA4NyIgaW5rc2NhcGU6Y3VycmVudC1sYXllcj0ic3ZnNTgwODUiIGlua3NjYXBlOmN4PSIxMDcuNDEzOTciIGlua3NjYXBlOmN5PSIyNS4yNzAzOCIgaW5rc2NhcGU6cGFnZW9wYWNpdHk9IjAiIGlua3NjYXBlOnBhZ2VzaGFkb3c9IjIiIGlua3NjYXBlOndpbmRvdy1oZWlnaHQ9IjEwMTciIGlua3NjYXBlOndpbmRvdy1tYXhpbWl6ZWQ9IjEiIGlua3NjYXBlOndpbmRvdy13aWR0aD0iMTkyMCIgaW5rc2NhcGU6d2luZG93LXg9Ii04IiBpbmtzY2FwZTp3aW5kb3cteT0iLTgiIGlua3NjYXBlOnpvb209IjQuMTcxMTY5OSIgb2JqZWN0dG9sZXJhbmNlPSIxMCIgcGFnZWNvbG9yPSIjZmZmZmZmIiBzaG93Z3JpZD0iZmFsc2UiPiYjeGE7CTwvc29kaXBvZGk6bmFtZWR2aWV3PiYjeGE7PGcgaWQ9Imc1ODA4MyIgdHJhbnNmb3JtPSJ0cmFuc2xhdGUoLTcuNjUwMTcwMywtNy42NDczOTUpIj4mI3hhOwk8dGl0bGUgaWQ9InRpdGxlNTgwNDYiPlBhZ2UtMTwvdGl0bGU+JiN4YTsJPGcgaWQ9Imdyb3VwNTIwOS0xIiB0cmFuc2Zvcm09InRyYW5zbGF0ZSg3LjY1LC03LjY1KSI+JiN4YTsJCTx0aXRsZSBpZD0idGl0bGU1ODA0OCI+QXp1cmUgRmlsZXMgU3RvcmFnZTwvdGl0bGU+JiN4YTsJCTxnIGlkPSJzaGFwZTUyMTAtMiI+JiN4YTsJCQk8dGl0bGUgaWQ9InRpdGxlNTgwNTAiPlNoZWV0LjUyMTA8L3RpdGxlPiYjeGE7CQkJPHBhdGggaWQ9InBhdGg1ODA1MiIgaW5rc2NhcGU6Y29ubmVjdG9yLWN1cnZhdHVyZT0iMCIgc3R5bGU9ImZpbGw6I0EwQTFBMjsiIGQ9Ik0wLDc1LjE4YzAsMS40NSwxLjIsMi43NywyLjcxLDIuNzdoNjkuNjEgICAgIGMxLjUsMCwyLjg1LTEuMTcsMi44NS0yLjc3VjI2Ljk1SDBWNzUuMTh6Ii8+JiN4YTsJCTwvZz4mI3hhOwkJPGcgaWQ9InNoYXBlNTIxMS00IiB0cmFuc2Zvcm09InRyYW5zbGF0ZSgwLC01MC45OTExKSI+JiN4YTsJCQk8dGl0bGUgaWQ9InRpdGxlNTgwNTUiPlNoZWV0LjUyMTE8L3RpdGxlPiYjeGE7CQkJPHBhdGggaWQ9InBhdGg1ODA1NyIgaW5rc2NhcGU6Y29ubmVjdG9yLWN1cnZhdHVyZT0iMCIgc3R5bGU9ImZpbGw6IzdBN0E3QTsiIGQ9Ik03Mi4zMiw2Ni40NEgyLjcxQzEuMiw2Ni40NCwwLDY3Ljc1LDAsNjkuMiAgICAgdjguNzVoNzUuMTd2LTguNzRjMC0xLjQ2LTEuMjItMi42MS0yLjg3LTIuNjFMNzIuMzIsNjYuNDR6Ii8+JiN4YTsJCQk8cGF0aCBpZD0icGF0aDU4MDU5IiBpbmtzY2FwZTpjb25uZWN0b3ItY3VydmF0dXJlPSIwIiBzdHlsZT0iZmlsbDpub25lOyIgZD0iTTcyLjMyLDY2LjQ0SDIuNzFDMS4yLDY2LjQ0LDAsNjcuNzUsMCw2OS4ydjguNzUgICAgIGg3NS4xN3YtOC43NGMwLTEuNDYtMS4yMi0yLjYxLTIuODctMi42MSIvPiYjeGE7CQk8L2c+JiN4YTsJCTxnIGlkPSJzaGFwZTUyMTItNyIgdHJhbnNmb3JtPSJ0cmFuc2xhdGUoNi4wMTM5OSwtMjEuMTI0MSkiPiYjeGE7CQkJPHRpdGxlIGlkPSJ0aXRsZTU4MDYyIj5TaGVldC41MjEyPC90aXRsZT4mI3hhOwkJCTxyZWN0IGlkPSJyZWN0NTgwNjQiIHg9IjAiIHk9IjY3Ljc1IiBzdHlsZT0iZmlsbDojQjhENDMyOyIgd2lkdGg9IjYzLjE1IiBoZWlnaHQ9IjEwLjIiLz4mI3hhOwkJPC9nPiYjeGE7CQk8ZyBpZD0ic2hhcGU1MjEzLTkiIHRyYW5zZm9ybT0idHJhbnNsYXRlKDYuMDEzOTksLTM2LjQyMSkiPiYjeGE7CQkJPHRpdGxlIGlkPSJ0aXRsZTU4MDY3Ij5TaGVldC41MjEzPC90aXRsZT4mI3hhOwkJCTxyZWN0IGlkPSJyZWN0NTgwNjkiIHg9IjAiIHk9IjY3Ljc1IiBzdHlsZT0iZmlsbDojRkZGRkZGOyIgd2lkdGg9IjYzLjE1IiBoZWlnaHQ9IjEwLjIiLz4mI3hhOwkJPC9nPiYjeGE7CQk8ZyBpZD0ic2hhcGU1MjE0LTExIiB0cmFuc2Zvcm09InRyYW5zbGF0ZSg2LjAxMzk5LC01LjgyNzMpIj4mI3hhOwkJCTx0aXRsZSBpZD0idGl0bGU1ODA3MiI+U2hlZXQuNTIxNDwvdGl0bGU+JiN4YTsJCQk8cmVjdCBpZD0icmVjdDU4MDc0IiB4PSIwIiB5PSI2Ny43NSIgc3R5bGU9ImZpbGw6I0I4RDQzMjsiIHdpZHRoPSI2My4xNSIgaGVpZ2h0PSIxMC4yIi8+JiN4YTsJCTwvZz4mI3hhOwkJPGcgaWQ9InNoYXBlNTIxNS0xMyIgdHJhbnNmb3JtPSJ0cmFuc2xhdGUoMCwtMC41ODI2MDUpIj4mI3hhOwkJCTx0aXRsZSBpZD0idGl0bGU1ODA3NyI+U2hlZXQuNTIxNTwvdGl0bGU+JiN4YTsJCQk8cGF0aCBpZD0icGF0aDU4MDc5IiBpbmtzY2FwZTpjb25uZWN0b3ItY3VydmF0dXJlPSIwIiBzdHlsZT0iZmlsbDojRkZGRkZGO2ZpbGwtb3BhY2l0eTowLjI7IiBkPSJNMy4wMSwxNS44OCAgICAgQzEuMzUsMTUuODgsMCwxNy4xOSwwLDE4Ljh2MTAuNjN2NC44MXY0MC43OWMwLDEuNiwxLjM1LDIuOTIsMy4wMSwyLjkyaDMuM2w1OS4yNC02Mi4wN0gzLjAxeiIvPiYjeGE7CQk8L2c+JiN4YTsJPC9nPiYjeGE7PC9nPiYjeGE7PC9zdmc+;shadow=0;sketch=0;fillStyle=solid;fontSize=9;fontColor=#FFFFFF;fillColor=#FFFFFF;" parent="1" vertex="1">
          <mxGeometry x="270.98" y="1037" width="55.04" height="46.24" as="geometry" />
        </mxCell>
        <mxCell id="pQ5sCnLRhXGrllm_cWw9-45" value="secret&lt;br style=&quot;font-size: 9px;&quot;&gt;public-storage-access-key" style="sketch=0;aspect=fixed;html=1;points=[];align=center;image;fontSize=9;image=img/lib/mscae/Key_Vaults.svg;shadow=0;labelBackgroundColor=none;fillStyle=solid;fontColor=#FFFFFF;strokeWidth=3;fillColor=#FFFFFF;" parent="1" vertex="1">
          <mxGeometry x="108.5" y="910" width="57" height="59.38" as="geometry" />
        </mxCell>
        <mxCell id="pQ5sCnLRhXGrllm_cWw9-46" value="secret&lt;br style=&quot;font-size: 9px;&quot;&gt;CsoPortal-API-Access" style="sketch=0;aspect=fixed;html=1;points=[];align=center;image;fontSize=9;image=img/lib/mscae/Key_Vaults.svg;shadow=0;labelBackgroundColor=none;fillStyle=solid;fontColor=#FFFFFF;strokeWidth=3;fillColor=#FFFFFF;" parent="1" vertex="1">
          <mxGeometry x="108.5" y="1020.1899999999999" width="57" height="59.38" as="geometry" />
        </mxCell>
        <mxCell id="pQ5sCnLRhXGrllm_cWw9-47" value="Ptw Installer&#xa;[name of resource group]" style="shape=image;verticalLabelPosition=middle;labelBackgroundColor=none;verticalAlign=middle;aspect=fixed;imageAspect=0;image=data:image/svg+xml,PHN2ZyB4bWxuczpjYz0iaHR0cDovL2NyZWF0aXZlY29tbW9ucy5vcmcvbnMjIiB4bWxuczpkYz0iaHR0cDovL3B1cmwub3JnL2RjL2VsZW1lbnRzLzEuMS8iIHhtbG5zOmlua3NjYXBlPSJodHRwOi8vd3d3Lmlua3NjYXBlLm9yZy9uYW1lc3BhY2VzL2lua3NjYXBlIiB4bWxuczpyZGY9Imh0dHA6Ly93d3cudzMub3JnLzE5OTkvMDIvMjItcmRmLXN5bnRheC1ucyMiIHhtbG5zOnNvZGlwb2RpPSJodHRwOi8vc29kaXBvZGkuc291cmNlZm9yZ2UubmV0L0RURC9zb2RpcG9kaS0wLmR0ZCIgeG1sbnM6c3ZnPSJodHRwOi8vd3d3LnczLm9yZy8yMDAwL3N2ZyIgeG1sbnM9Imh0dHA6Ly93d3cudzMub3JnLzIwMDAvc3ZnIiB4bWxuczp4bGluaz0iaHR0cDovL3d3dy53My5vcmcvMTk5OS94bGluayIgdmVyc2lvbj0iMS4xIiBpZD0ic3ZnNTk4MjciIGlua3NjYXBlOnZlcnNpb249IjAuOTIuMyAoMjQwNTU0NiwgMjAxOC0wMy0xMSkiIHNvZGlwb2RpOmRvY25hbWU9ImF6dXJlX3BvcnRhbF9hbGxfcmVzb3VyY2VzLnN2ZyIgeD0iMHB4IiB5PSIwcHgiIHZpZXdCb3g9IjAgMCAyNS4xNCAyNS4xNCIgc3R5bGU9ImVuYWJsZS1iYWNrZ3JvdW5kOm5ldyAwIDAgMjUuMTQgMjUuMTQ7IiB4bWw6c3BhY2U9InByZXNlcnZlIj4mI3hhOzxzb2RpcG9kaTpuYW1lZHZpZXcgYm9yZGVyY29sb3I9IiM2NjY2NjYiIGJvcmRlcm9wYWNpdHk9IjEiIGZpdC1tYXJnaW4tYm90dG9tPSIwIiBmaXQtbWFyZ2luLWxlZnQ9IjAiIGZpdC1tYXJnaW4tcmlnaHQ9IjAiIGZpdC1tYXJnaW4tdG9wPSIwIiBncmlkdG9sZXJhbmNlPSIxMCIgZ3VpZGV0b2xlcmFuY2U9IjEwIiBpZD0ibmFtZWR2aWV3NTk4MjkiIGlua3NjYXBlOmN1cnJlbnQtbGF5ZXI9InN2ZzU5ODI3IiBpbmtzY2FwZTpjeD0iMTQuMTg2NDM5IiBpbmtzY2FwZTpjeT0iMTQuMzU2MDgzIiBpbmtzY2FwZTpwYWdlb3BhY2l0eT0iMCIgaW5rc2NhcGU6cGFnZXNoYWRvdz0iMiIgaW5rc2NhcGU6d2luZG93LWhlaWdodD0iMTAxNyIgaW5rc2NhcGU6d2luZG93LW1heGltaXplZD0iMSIgaW5rc2NhcGU6d2luZG93LXdpZHRoPSIxOTIwIiBpbmtzY2FwZTp3aW5kb3cteD0iLTgiIGlua3NjYXBlOndpbmRvdy15PSItOCIgaW5rc2NhcGU6em9vbT0iMTcuMjYyNjAzIiBvYmplY3R0b2xlcmFuY2U9IjEwIiBwYWdlY29sb3I9IiNmZmZmZmYiIHNob3dncmlkPSJmYWxzZSI+JiN4YTsJPC9zb2RpcG9kaTpuYW1lZHZpZXc+JiN4YTs8ZyBpZD0iZzU5ODI1IiB0cmFuc2Zvcm09InRyYW5zbGF0ZSgtMC43NSwtMC43NTAwMDA2NSkiPiYjeGE7CTx0aXRsZSBpZD0idGl0bGU1OTc3NSI+UGFnZS0xPC90aXRsZT4mI3hhOwk8ZyBpZD0iZ3JvdXA0MzA4LTEiIHRyYW5zZm9ybT0idHJhbnNsYXRlKDAuNzUsLTAuNzUpIj4mI3hhOwkJPHRpdGxlIGlkPSJ0aXRsZTU5Nzc3Ij5BenVyZSBQb3J0YWwgLSBBbGwgUmVzb3VyY2VzPC90aXRsZT4mI3hhOwkJPGcgaWQ9InNoYXBlNDMwOS0yIiB0cmFuc2Zvcm09InRyYW5zbGF0ZSgwLC0xNy42NjI3KSI+JiN4YTsJCQk8dGl0bGUgaWQ9InRpdGxlNTk3NzkiPlNoZWV0LjQzMDk8L3RpdGxlPiYjeGE7CQkJPHJlY3QgaWQ9InJlY3Q1OTc4MSIgeT0iMTkuMTYiIHN0eWxlPSJmaWxsOiNCOEQ0MzI7IiB3aWR0aD0iNy40NSIgaGVpZ2h0PSI3LjQ3Ii8+JiN4YTsJCTwvZz4mI3hhOwkJPGcgaWQ9InNoYXBlNDMxMC00IiB0cmFuc2Zvcm09InRyYW5zbGF0ZSg4Ljg1MzA4LC0xNy42NjI3KSI+JiN4YTsJCQk8dGl0bGUgaWQ9InRpdGxlNTk3ODQiPlNoZWV0LjQzMTA8L3RpdGxlPiYjeGE7CQkJPHJlY3QgaWQ9InJlY3Q1OTc4NiIgeD0iMCIgeT0iMTkuMTYiIHN0eWxlPSJmaWxsOiNCOEQ0MzI7IiB3aWR0aD0iNy40NSIgaGVpZ2h0PSI3LjQ3Ii8+JiN4YTsJCTwvZz4mI3hhOwkJPGcgaWQ9InNoYXBlNDMxMS02IiB0cmFuc2Zvcm09InRyYW5zbGF0ZSgxNy42NjI3LC0xNy42NjI3KSI+JiN4YTsJCQk8dGl0bGUgaWQ9InRpdGxlNTk3ODkiPlNoZWV0LjQzMTE8L3RpdGxlPiYjeGE7CQkJPHJlY3QgaWQ9InJlY3Q1OTc5MSIgeD0iMCIgeT0iMTkuMTYiIHN0eWxlPSJmaWxsOiNCOEQ0MzI7IiB3aWR0aD0iNy40NSIgaGVpZ2h0PSI3LjQ3Ii8+JiN4YTsJCTwvZz4mI3hhOwkJPGcgaWQ9InNoYXBlNDMxMi04IiB0cmFuc2Zvcm09InRyYW5zbGF0ZSgwLjAyMTczODcsLTguODMxMzUpIj4mI3hhOwkJCTx0aXRsZSBpZD0idGl0bGU1OTc5NCI+U2hlZXQuNDMxMjwvdGl0bGU+JiN4YTsJCQk8cmVjdCBpZD0icmVjdDU5Nzk2IiB4PSIwIiB5PSIxOS4xNiIgc3R5bGU9ImZpbGw6I0I4RDQzMjsiIHdpZHRoPSI3LjQ1IiBoZWlnaHQ9IjcuNDciLz4mI3hhOwkJPC9nPiYjeGE7CQk8ZyBpZD0ic2hhcGU0MzEzLTEwIiB0cmFuc2Zvcm09InRyYW5zbGF0ZSg4Ljg1MzA4LC04LjgzMTM1KSI+JiN4YTsJCQk8dGl0bGUgaWQ9InRpdGxlNTk3OTkiPlNoZWV0LjQzMTM8L3RpdGxlPiYjeGE7CQkJPHJlY3QgaWQ9InJlY3Q1OTgwMSIgeD0iMCIgeT0iMTkuMTYiIHN0eWxlPSJmaWxsOiNCOEQ0MzI7IiB3aWR0aD0iNy40NSIgaGVpZ2h0PSI3LjQ3Ii8+JiN4YTsJCTwvZz4mI3hhOwkJPGcgaWQ9InNoYXBlNDMxNC0xMiIgdHJhbnNmb3JtPSJ0cmFuc2xhdGUoMTcuNjg0NCwtOC44MzEzNSkiPiYjeGE7CQkJPHRpdGxlIGlkPSJ0aXRsZTU5ODA0Ij5TaGVldC40MzE0PC90aXRsZT4mI3hhOwkJCTxyZWN0IGlkPSJyZWN0NTk4MDYiIHg9IjAiIHk9IjE5LjE2IiBzdHlsZT0iZmlsbDojQjhENDMyOyIgd2lkdGg9IjcuNDUiIGhlaWdodD0iNy40NyIvPiYjeGE7CQk8L2c+JiN4YTsJCTxnIGlkPSJzaGFwZTQzMTUtMTQiIHRyYW5zZm9ybT0idHJhbnNsYXRlKDAuMDIxNzM4NykiPiYjeGE7CQkJPHRpdGxlIGlkPSJ0aXRsZTU5ODA5Ij5TaGVldC40MzE1PC90aXRsZT4mI3hhOwkJCTxyZWN0IGlkPSJyZWN0NTk4MTEiIHg9IjAiIHk9IjE5LjE2IiBzdHlsZT0iZmlsbDojQjhENDMyOyIgd2lkdGg9IjcuNDUiIGhlaWdodD0iNy40NyIvPiYjeGE7CQk8L2c+JiN4YTsJCTxnIGlkPSJzaGFwZTQzMTYtMTYiIHRyYW5zZm9ybT0idHJhbnNsYXRlKDguODUzMDgpIj4mI3hhOwkJCTx0aXRsZSBpZD0idGl0bGU1OTgxNCI+U2hlZXQuNDMxNjwvdGl0bGU+JiN4YTsJCQk8cmVjdCBpZD0icmVjdDU5ODE2IiB4PSIwIiB5PSIxOS4xNiIgc3R5bGU9ImZpbGw6I0I4RDQzMjsiIHdpZHRoPSI3LjQ1IiBoZWlnaHQ9IjcuNDciLz4mI3hhOwkJPC9nPiYjeGE7CQk8ZyBpZD0ic2hhcGU0MzE3LTE4IiB0cmFuc2Zvcm09InRyYW5zbGF0ZSgxNy42ODQ0KSI+JiN4YTsJCQk8dGl0bGUgaWQ9InRpdGxlNTk4MTkiPlNoZWV0LjQzMTc8L3RpdGxlPiYjeGE7CQkJPHJlY3QgaWQ9InJlY3Q1OTgyMSIgeD0iMCIgeT0iMTkuMTYiIHN0eWxlPSJmaWxsOiNCOEQ0MzI7IiB3aWR0aD0iNy40NSIgaGVpZ2h0PSI3LjQ3Ii8+JiN4YTsJCTwvZz4mI3hhOwk8L2c+JiN4YTs8L2c+JiN4YTs8L3N2Zz4=;shadow=0;sketch=0;fillStyle=solid;fontSize=13;fontColor=#FFFFFF;strokeWidth=3;fillColor=#FFFFFF;imageBackground=none;labelPosition=right;align=left;fontStyle=0" parent="1" vertex="1">
          <mxGeometry x="70" y="789" width="41" height="41" as="geometry" />
        </mxCell>
        <mxCell id="pQ5sCnLRhXGrllm_cWw9-48" value="" style="rounded=1;whiteSpace=wrap;html=1;shadow=0;strokeWidth=2;fillColor=#8BC63E;fontSize=12;fontColor=#FFFFFF;align=left;strokeColor=none;arcSize=3;labelPosition=right;verticalLabelPosition=middle;verticalAlign=middle;opacity=50;" parent="1" vertex="1">
          <mxGeometry x="604" y="760" width="530" height="420" as="geometry" />
        </mxCell>
        <mxCell id="pQ5sCnLRhXGrllm_cWw9-49" value="Deployable resources" style="rounded=1;whiteSpace=wrap;html=1;shadow=0;strokeWidth=2;fillColor=none;fontSize=12;fontColor=#FFFFFF;align=center;strokeColor=#FFFFFF;arcSize=10;labelPosition=center;verticalLabelPosition=top;verticalAlign=bottom;fontStyle=1" parent="1" vertex="1">
          <mxGeometry x="767" y="889" width="171" height="241" as="geometry" />
        </mxCell>
        <mxCell id="pQ5sCnLRhXGrllm_cWw9-50" value="Availability set" style="rounded=1;whiteSpace=wrap;html=1;shadow=0;strokeWidth=2;fillColor=none;fontSize=11;fontColor=#FFFFFF;align=center;strokeColor=#FFFFFF;dashed=1;verticalAlign=top;" parent="1" vertex="1">
          <mxGeometry x="777" y="899" width="151" height="222" as="geometry" />
        </mxCell>
        <mxCell id="pQ5sCnLRhXGrllm_cWw9-51" value="Dependant resources" style="rounded=1;whiteSpace=wrap;html=1;shadow=0;strokeWidth=2;fillColor=none;fontSize=12;fontColor=#FFFFFF;align=center;strokeColor=#FFFFFF;labelPosition=center;verticalLabelPosition=top;verticalAlign=bottom;fontStyle=1;arcSize=12;" parent="1" vertex="1">
          <mxGeometry x="624" y="889" width="134" height="240" as="geometry" />
        </mxCell>
        <mxCell id="pQ5sCnLRhXGrllm_cWw9-52" value="Seeding data" style="rounded=1;whiteSpace=wrap;html=1;shadow=0;strokeWidth=2;fillColor=none;fontSize=12;fontColor=#FFFFFF;align=center;strokeColor=#FFFFFF;arcSize=9;labelPosition=center;verticalLabelPosition=top;verticalAlign=bottom;fontStyle=1" parent="1" vertex="1">
          <mxGeometry x="949" y="889" width="160" height="241" as="geometry" />
        </mxCell>
        <mxCell id="pQ5sCnLRhXGrllm_cWw9-53" value="" style="endArrow=classic;html=1;rounded=1;fontSize=9;fontColor=#FFFFFF;exitX=0.5;exitY=1;exitDx=0;exitDy=0;entryX=0.5;entryY=0;entryDx=0;entryDy=0;strokeColor=#CCCCCC;jumpSize=10;arcSize=26;endSize=6;startSize=5;" parent="1" source="pQ5sCnLRhXGrllm_cWw9-54" target="pQ5sCnLRhXGrllm_cWw9-55" edge="1">
          <mxGeometry width="50" height="50" relative="1" as="geometry">
            <mxPoint x="857" y="967.3399999999999" as="sourcePoint" />
            <mxPoint x="907" y="917.3399999999999" as="targetPoint" />
          </mxGeometry>
        </mxCell>
        <mxCell id="pQ5sCnLRhXGrllm_cWw9-54" value="storage account&#xa;stptwinstaller" style="shape=image;verticalLabelPosition=bottom;verticalAlign=top;imageAspect=0;aspect=fixed;image=data:image/svg+xml,PHN2ZyB4bWxuczpkYz0iaHR0cDovL3B1cmwub3JnL2RjL2VsZW1lbnRzLzEuMS8iIHhtbG5zOmNjPSJodHRwOi8vY3JlYXRpdmVjb21tb25zLm9yZy9ucyMiIHhtbG5zOnJkZj0iaHR0cDovL3d3dy53My5vcmcvMTk5OS8wMi8yMi1yZGYtc3ludGF4LW5zIyIgeG1sbnM6c3ZnPSJodHRwOi8vd3d3LnczLm9yZy8yMDAwL3N2ZyIgeG1sbnM9Imh0dHA6Ly93d3cudzMub3JnLzIwMDAvc3ZnIiB4bWxuczpzb2RpcG9kaT0iaHR0cDovL3NvZGlwb2RpLnNvdXJjZWZvcmdlLm5ldC9EVEQvc29kaXBvZGktMC5kdGQiIHhtbG5zOmlua3NjYXBlPSJodHRwOi8vd3d3Lmlua3NjYXBlLm9yZy9uYW1lc3BhY2VzL2lua3NjYXBlIiB2ZXJzaW9uPSIxLjEiIGlkPSJMYXllcl8xIiB4PSIwcHgiIHk9IjBweCIgd2lkdGg9IjUwIiBoZWlnaHQ9IjQyLjkwMDAwMiIgdmlld0JveD0iMCAwIDUwIDQyLjkwMDAwMiIgZW5hYmxlLWJhY2tncm91bmQ9Im5ldyAwIDAgNTAgNTAiIHhtbDpzcGFjZT0icHJlc2VydmUiIHNvZGlwb2RpOmRvY25hbWU9InN0b3JhZ2VfYWNjb3VudHNfY2xhc3NpYy5zdmciIGlua3NjYXBlOnZlcnNpb249IjAuOTIuMyAoMjQwNTU0NiwgMjAxOC0wMy0xMSkiPjxtZXRhZGF0YSBpZD0ibWV0YWRhdGExMDgwOSI+PHJkZjpSREY+PGNjOldvcmsgcmRmOmFib3V0PSIiPjxkYzpmb3JtYXQ+aW1hZ2Uvc3ZnK3htbDwvZGM6Zm9ybWF0PjxkYzp0eXBlIHJkZjpyZXNvdXJjZT0iaHR0cDovL3B1cmwub3JnL2RjL2RjbWl0eXBlL1N0aWxsSW1hZ2UiLz48ZGM6dGl0bGUvPjwvY2M6V29yaz48L3JkZjpSREY+PC9tZXRhZGF0YT48ZGVmcyBpZD0iZGVmczEwODA3Ii8+PHNvZGlwb2RpOm5hbWVkdmlldyBwYWdlY29sb3I9IiNmZmZmZmYiIGJvcmRlcmNvbG9yPSIjNjY2NjY2IiBib3JkZXJvcGFjaXR5PSIxIiBvYmplY3R0b2xlcmFuY2U9IjEwIiBncmlkdG9sZXJhbmNlPSIxMCIgZ3VpZGV0b2xlcmFuY2U9IjEwIiBpbmtzY2FwZTpwYWdlb3BhY2l0eT0iMCIgaW5rc2NhcGU6cGFnZXNoYWRvdz0iMiIgaW5rc2NhcGU6d2luZG93LXdpZHRoPSIxOTIwIiBpbmtzY2FwZTp3aW5kb3ctaGVpZ2h0PSIxMDE3IiBpZD0ibmFtZWR2aWV3MTA4MDUiIHNob3dncmlkPSJmYWxzZSIgZml0LW1hcmdpbi10b3A9IjAiIGZpdC1tYXJnaW4tbGVmdD0iMCIgZml0LW1hcmdpbi1yaWdodD0iMCIgZml0LW1hcmdpbi1ib3R0b209IjAiIGlua3NjYXBlOnpvb209IjE3IiBpbmtzY2FwZTpjeD0iMjUiIGlua3NjYXBlOmN5PSIyMiIgaW5rc2NhcGU6d2luZG93LXg9Ii04IiBpbmtzY2FwZTp3aW5kb3cteT0iLTgiIGlua3NjYXBlOndpbmRvdy1tYXhpbWl6ZWQ9IjEiIGlua3NjYXBlOmN1cnJlbnQtbGF5ZXI9IkxheWVyXzEiLz4mI3hhOzxwYXRoIGQ9Im0gMCw0MSBjIDAsMSAwLjgsMS45IDEuOCwxLjkgaCA0Ni4zIGMgMSwwIDEuOSwtMC44IDEuOSwtMS45IFYgNy45IEggMCBaIiBpZD0icGF0aDEwNzk0IiBpbmtzY2FwZTpjb25uZWN0b3ItY3VydmF0dXJlPSIwIiBzdHlsZT0iZmlsbDojNTliNGQ5Ii8+JiN4YTs8cGF0aCBkPSJNIDQ4LjEsMCBIIDEuOCBDIDAuOCwwIDAsMC45IDAsMS45IHYgNiBoIDUwIHYgLTYgYyAwLC0xIC0wLjgsLTEuNiAtMS45LC0xLjYiIGlkPSJwYXRoMTA3OTYiIGlua3NjYXBlOmNvbm5lY3Rvci1jdXJ2YXR1cmU9IjAiIHN0eWxlPSJmaWxsOiMwMDcyYzYiLz4mI3hhOzxyZWN0IHg9IjQiIHk9IjIxLjQiIHdpZHRoPSI0MiIgaGVpZ2h0PSI3IiBpZD0icmVjdDEwNzk4IiBzdHlsZT0iZmlsbDojMDA3MmM2Ii8+JiN4YTs8cmVjdCB4PSI0IiB5PSIxMC45IiB3aWR0aD0iNDIiIGhlaWdodD0iNyIgaWQ9InJlY3QxMDgwMCIgc3R5bGU9ImZpbGw6I2ZmZmZmZiIvPiYjeGE7PHJlY3QgeD0iNCIgeT0iMzEuOSIgd2lkdGg9IjQyIiBoZWlnaHQ9IjciIGlkPSJyZWN0MTA4MDIiIHN0eWxlPSJmaWxsOiMwMDcyYzYiLz4mI3hhOzwvc3ZnPg==;shadow=0;labelBackgroundColor=none;sketch=0;fillStyle=solid;fontSize=9;fontColor=#FFFFFF;fillColor=#FFFFFF;spacing=0;imageBackground=none;" parent="1" vertex="1">
          <mxGeometry x="819.89" y="930.9100000000001" width="65.22" height="56.09" as="geometry" />
        </mxCell>
        <mxCell id="pQ5sCnLRhXGrllm_cWw9-55" value="blob container&#xa;installation-public&#xa;" style="shape=image;verticalLabelPosition=bottom;labelBackgroundColor=none;verticalAlign=top;aspect=fixed;imageAspect=0;image=data:image/svg+xml,PHN2ZyB4bWxuczpjYz0iaHR0cDovL2NyZWF0aXZlY29tbW9ucy5vcmcvbnMjIiB4bWxuczpkYz0iaHR0cDovL3B1cmwub3JnL2RjL2VsZW1lbnRzLzEuMS8iIHhtbG5zOmlua3NjYXBlPSJodHRwOi8vd3d3Lmlua3NjYXBlLm9yZy9uYW1lc3BhY2VzL2lua3NjYXBlIiB4bWxuczpyZGY9Imh0dHA6Ly93d3cudzMub3JnLzE5OTkvMDIvMjItcmRmLXN5bnRheC1ucyMiIHhtbG5zOnNvZGlwb2RpPSJodHRwOi8vc29kaXBvZGkuc291cmNlZm9yZ2UubmV0L0RURC9zb2RpcG9kaS0wLmR0ZCIgeG1sbnM6c3ZnPSJodHRwOi8vd3d3LnczLm9yZy8yMDAwL3N2ZyIgeG1sbnM9Imh0dHA6Ly93d3cudzMub3JnLzIwMDAvc3ZnIiB4bWxuczp4bGluaz0iaHR0cDovL3d3dy53My5vcmcvMTk5OS94bGluayIgdmVyc2lvbj0iMS4xIiBpZD0ic3ZnNTgwODUiIGlua3NjYXBlOnZlcnNpb249IjAuOTIuMyAoMjQwNTU0NiwgMjAxOC0wMy0xMSkiIHNvZGlwb2RpOmRvY25hbWU9ImF6dXJlX2ZpbGVzX3N0b3JhZ2Uuc3ZnIiB4PSIwcHgiIHk9IjBweCIgdmlld0JveD0iMCAwIDc1LjE3IDYyLjY1IiBzdHlsZT0iZW5hYmxlLWJhY2tncm91bmQ6bmV3IDAgMCA3NS4xNyA2Mi42NTsiIHhtbDpzcGFjZT0icHJlc2VydmUiPiYjeGE7PHNvZGlwb2RpOm5hbWVkdmlldyBib3JkZXJjb2xvcj0iIzY2NjY2NiIgYm9yZGVyb3BhY2l0eT0iMSIgZml0LW1hcmdpbi1ib3R0b209IjAiIGZpdC1tYXJnaW4tbGVmdD0iMCIgZml0LW1hcmdpbi1yaWdodD0iMCIgZml0LW1hcmdpbi10b3A9IjAiIGdyaWR0b2xlcmFuY2U9IjEwIiBndWlkZXRvbGVyYW5jZT0iMTAiIGlkPSJuYW1lZHZpZXc1ODA4NyIgaW5rc2NhcGU6Y3VycmVudC1sYXllcj0ic3ZnNTgwODUiIGlua3NjYXBlOmN4PSIxMDcuNDEzOTciIGlua3NjYXBlOmN5PSIyNS4yNzAzOCIgaW5rc2NhcGU6cGFnZW9wYWNpdHk9IjAiIGlua3NjYXBlOnBhZ2VzaGFkb3c9IjIiIGlua3NjYXBlOndpbmRvdy1oZWlnaHQ9IjEwMTciIGlua3NjYXBlOndpbmRvdy1tYXhpbWl6ZWQ9IjEiIGlua3NjYXBlOndpbmRvdy13aWR0aD0iMTkyMCIgaW5rc2NhcGU6d2luZG93LXg9Ii04IiBpbmtzY2FwZTp3aW5kb3cteT0iLTgiIGlua3NjYXBlOnpvb209IjQuMTcxMTY5OSIgb2JqZWN0dG9sZXJhbmNlPSIxMCIgcGFnZWNvbG9yPSIjZmZmZmZmIiBzaG93Z3JpZD0iZmFsc2UiPiYjeGE7CTwvc29kaXBvZGk6bmFtZWR2aWV3PiYjeGE7PGcgaWQ9Imc1ODA4MyIgdHJhbnNmb3JtPSJ0cmFuc2xhdGUoLTcuNjUwMTcwMywtNy42NDczOTUpIj4mI3hhOwk8dGl0bGUgaWQ9InRpdGxlNTgwNDYiPlBhZ2UtMTwvdGl0bGU+JiN4YTsJPGcgaWQ9Imdyb3VwNTIwOS0xIiB0cmFuc2Zvcm09InRyYW5zbGF0ZSg3LjY1LC03LjY1KSI+JiN4YTsJCTx0aXRsZSBpZD0idGl0bGU1ODA0OCI+QXp1cmUgRmlsZXMgU3RvcmFnZTwvdGl0bGU+JiN4YTsJCTxnIGlkPSJzaGFwZTUyMTAtMiI+JiN4YTsJCQk8dGl0bGUgaWQ9InRpdGxlNTgwNTAiPlNoZWV0LjUyMTA8L3RpdGxlPiYjeGE7CQkJPHBhdGggaWQ9InBhdGg1ODA1MiIgaW5rc2NhcGU6Y29ubmVjdG9yLWN1cnZhdHVyZT0iMCIgc3R5bGU9ImZpbGw6I0EwQTFBMjsiIGQ9Ik0wLDc1LjE4YzAsMS40NSwxLjIsMi43NywyLjcxLDIuNzdoNjkuNjEgICAgIGMxLjUsMCwyLjg1LTEuMTcsMi44NS0yLjc3VjI2Ljk1SDBWNzUuMTh6Ii8+JiN4YTsJCTwvZz4mI3hhOwkJPGcgaWQ9InNoYXBlNTIxMS00IiB0cmFuc2Zvcm09InRyYW5zbGF0ZSgwLC01MC45OTExKSI+JiN4YTsJCQk8dGl0bGUgaWQ9InRpdGxlNTgwNTUiPlNoZWV0LjUyMTE8L3RpdGxlPiYjeGE7CQkJPHBhdGggaWQ9InBhdGg1ODA1NyIgaW5rc2NhcGU6Y29ubmVjdG9yLWN1cnZhdHVyZT0iMCIgc3R5bGU9ImZpbGw6IzdBN0E3QTsiIGQ9Ik03Mi4zMiw2Ni40NEgyLjcxQzEuMiw2Ni40NCwwLDY3Ljc1LDAsNjkuMiAgICAgdjguNzVoNzUuMTd2LTguNzRjMC0xLjQ2LTEuMjItMi42MS0yLjg3LTIuNjFMNzIuMzIsNjYuNDR6Ii8+JiN4YTsJCQk8cGF0aCBpZD0icGF0aDU4MDU5IiBpbmtzY2FwZTpjb25uZWN0b3ItY3VydmF0dXJlPSIwIiBzdHlsZT0iZmlsbDpub25lOyIgZD0iTTcyLjMyLDY2LjQ0SDIuNzFDMS4yLDY2LjQ0LDAsNjcuNzUsMCw2OS4ydjguNzUgICAgIGg3NS4xN3YtOC43NGMwLTEuNDYtMS4yMi0yLjYxLTIuODctMi42MSIvPiYjeGE7CQk8L2c+JiN4YTsJCTxnIGlkPSJzaGFwZTUyMTItNyIgdHJhbnNmb3JtPSJ0cmFuc2xhdGUoNi4wMTM5OSwtMjEuMTI0MSkiPiYjeGE7CQkJPHRpdGxlIGlkPSJ0aXRsZTU4MDYyIj5TaGVldC41MjEyPC90aXRsZT4mI3hhOwkJCTxyZWN0IGlkPSJyZWN0NTgwNjQiIHg9IjAiIHk9IjY3Ljc1IiBzdHlsZT0iZmlsbDojQjhENDMyOyIgd2lkdGg9IjYzLjE1IiBoZWlnaHQ9IjEwLjIiLz4mI3hhOwkJPC9nPiYjeGE7CQk8ZyBpZD0ic2hhcGU1MjEzLTkiIHRyYW5zZm9ybT0idHJhbnNsYXRlKDYuMDEzOTksLTM2LjQyMSkiPiYjeGE7CQkJPHRpdGxlIGlkPSJ0aXRsZTU4MDY3Ij5TaGVldC41MjEzPC90aXRsZT4mI3hhOwkJCTxyZWN0IGlkPSJyZWN0NTgwNjkiIHg9IjAiIHk9IjY3Ljc1IiBzdHlsZT0iZmlsbDojRkZGRkZGOyIgd2lkdGg9IjYzLjE1IiBoZWlnaHQ9IjEwLjIiLz4mI3hhOwkJPC9nPiYjeGE7CQk8ZyBpZD0ic2hhcGU1MjE0LTExIiB0cmFuc2Zvcm09InRyYW5zbGF0ZSg2LjAxMzk5LC01LjgyNzMpIj4mI3hhOwkJCTx0aXRsZSBpZD0idGl0bGU1ODA3MiI+U2hlZXQuNTIxNDwvdGl0bGU+JiN4YTsJCQk8cmVjdCBpZD0icmVjdDU4MDc0IiB4PSIwIiB5PSI2Ny43NSIgc3R5bGU9ImZpbGw6I0I4RDQzMjsiIHdpZHRoPSI2My4xNSIgaGVpZ2h0PSIxMC4yIi8+JiN4YTsJCTwvZz4mI3hhOwkJPGcgaWQ9InNoYXBlNTIxNS0xMyIgdHJhbnNmb3JtPSJ0cmFuc2xhdGUoMCwtMC41ODI2MDUpIj4mI3hhOwkJCTx0aXRsZSBpZD0idGl0bGU1ODA3NyI+U2hlZXQuNTIxNTwvdGl0bGU+JiN4YTsJCQk8cGF0aCBpZD0icGF0aDU4MDc5IiBpbmtzY2FwZTpjb25uZWN0b3ItY3VydmF0dXJlPSIwIiBzdHlsZT0iZmlsbDojRkZGRkZGO2ZpbGwtb3BhY2l0eTowLjI7IiBkPSJNMy4wMSwxNS44OCAgICAgQzEuMzUsMTUuODgsMCwxNy4xOSwwLDE4Ljh2MTAuNjN2NC44MXY0MC43OWMwLDEuNiwxLjM1LDIuOTIsMy4wMSwyLjkyaDMuM2w1OS4yNC02Mi4wN0gzLjAxeiIvPiYjeGE7CQk8L2c+JiN4YTsJPC9nPiYjeGE7PC9nPiYjeGE7PC9zdmc+;shadow=0;sketch=0;fillStyle=solid;fontSize=9;fontColor=#FFFFFF;fillColor=#FFFFFF;" parent="1" vertex="1">
          <mxGeometry x="824.98" y="1037" width="55.04" height="46.24" as="geometry" />
        </mxCell>
        <mxCell id="pQ5sCnLRhXGrllm_cWw9-56" value="secret&lt;br style=&quot;font-size: 9px;&quot;&gt;public-storage-access-key" style="sketch=0;aspect=fixed;html=1;points=[];align=center;image;fontSize=9;image=img/lib/mscae/Key_Vaults.svg;shadow=0;labelBackgroundColor=none;fillStyle=solid;fontColor=#FFFFFF;strokeWidth=3;fillColor=#FFFFFF;" parent="1" vertex="1">
          <mxGeometry x="662.5" y="910" width="57" height="59.38" as="geometry" />
        </mxCell>
        <mxCell id="pQ5sCnLRhXGrllm_cWw9-57" value="secret&lt;br style=&quot;font-size: 9px;&quot;&gt;CsoPortal-API-Access" style="sketch=0;aspect=fixed;html=1;points=[];align=center;image;fontSize=9;image=img/lib/mscae/Key_Vaults.svg;shadow=0;labelBackgroundColor=none;fillStyle=solid;fontColor=#FFFFFF;strokeWidth=3;fillColor=#FFFFFF;" parent="1" vertex="1">
          <mxGeometry x="662.5" y="1020.19" width="57" height="59.38" as="geometry" />
        </mxCell>
        <mxCell id="pQ5sCnLRhXGrllm_cWw9-58" value="Ptw Installer&#xa;[name of resource group]" style="shape=image;verticalLabelPosition=middle;labelBackgroundColor=none;verticalAlign=middle;aspect=fixed;imageAspect=0;image=data:image/svg+xml,PHN2ZyB4bWxuczpjYz0iaHR0cDovL2NyZWF0aXZlY29tbW9ucy5vcmcvbnMjIiB4bWxuczpkYz0iaHR0cDovL3B1cmwub3JnL2RjL2VsZW1lbnRzLzEuMS8iIHhtbG5zOmlua3NjYXBlPSJodHRwOi8vd3d3Lmlua3NjYXBlLm9yZy9uYW1lc3BhY2VzL2lua3NjYXBlIiB4bWxuczpyZGY9Imh0dHA6Ly93d3cudzMub3JnLzE5OTkvMDIvMjItcmRmLXN5bnRheC1ucyMiIHhtbG5zOnNvZGlwb2RpPSJodHRwOi8vc29kaXBvZGkuc291cmNlZm9yZ2UubmV0L0RURC9zb2RpcG9kaS0wLmR0ZCIgeG1sbnM6c3ZnPSJodHRwOi8vd3d3LnczLm9yZy8yMDAwL3N2ZyIgeG1sbnM9Imh0dHA6Ly93d3cudzMub3JnLzIwMDAvc3ZnIiB4bWxuczp4bGluaz0iaHR0cDovL3d3dy53My5vcmcvMTk5OS94bGluayIgdmVyc2lvbj0iMS4xIiBpZD0ic3ZnNTk4MjciIGlua3NjYXBlOnZlcnNpb249IjAuOTIuMyAoMjQwNTU0NiwgMjAxOC0wMy0xMSkiIHNvZGlwb2RpOmRvY25hbWU9ImF6dXJlX3BvcnRhbF9hbGxfcmVzb3VyY2VzLnN2ZyIgeD0iMHB4IiB5PSIwcHgiIHZpZXdCb3g9IjAgMCAyNS4xNCAyNS4xNCIgc3R5bGU9ImVuYWJsZS1iYWNrZ3JvdW5kOm5ldyAwIDAgMjUuMTQgMjUuMTQ7IiB4bWw6c3BhY2U9InByZXNlcnZlIj4mI3hhOzxzb2RpcG9kaTpuYW1lZHZpZXcgYm9yZGVyY29sb3I9IiM2NjY2NjYiIGJvcmRlcm9wYWNpdHk9IjEiIGZpdC1tYXJnaW4tYm90dG9tPSIwIiBmaXQtbWFyZ2luLWxlZnQ9IjAiIGZpdC1tYXJnaW4tcmlnaHQ9IjAiIGZpdC1tYXJnaW4tdG9wPSIwIiBncmlkdG9sZXJhbmNlPSIxMCIgZ3VpZGV0b2xlcmFuY2U9IjEwIiBpZD0ibmFtZWR2aWV3NTk4MjkiIGlua3NjYXBlOmN1cnJlbnQtbGF5ZXI9InN2ZzU5ODI3IiBpbmtzY2FwZTpjeD0iMTQuMTg2NDM5IiBpbmtzY2FwZTpjeT0iMTQuMzU2MDgzIiBpbmtzY2FwZTpwYWdlb3BhY2l0eT0iMCIgaW5rc2NhcGU6cGFnZXNoYWRvdz0iMiIgaW5rc2NhcGU6d2luZG93LWhlaWdodD0iMTAxNyIgaW5rc2NhcGU6d2luZG93LW1heGltaXplZD0iMSIgaW5rc2NhcGU6d2luZG93LXdpZHRoPSIxOTIwIiBpbmtzY2FwZTp3aW5kb3cteD0iLTgiIGlua3NjYXBlOndpbmRvdy15PSItOCIgaW5rc2NhcGU6em9vbT0iMTcuMjYyNjAzIiBvYmplY3R0b2xlcmFuY2U9IjEwIiBwYWdlY29sb3I9IiNmZmZmZmYiIHNob3dncmlkPSJmYWxzZSI+JiN4YTsJPC9zb2RpcG9kaTpuYW1lZHZpZXc+JiN4YTs8ZyBpZD0iZzU5ODI1IiB0cmFuc2Zvcm09InRyYW5zbGF0ZSgtMC43NSwtMC43NTAwMDA2NSkiPiYjeGE7CTx0aXRsZSBpZD0idGl0bGU1OTc3NSI+UGFnZS0xPC90aXRsZT4mI3hhOwk8ZyBpZD0iZ3JvdXA0MzA4LTEiIHRyYW5zZm9ybT0idHJhbnNsYXRlKDAuNzUsLTAuNzUpIj4mI3hhOwkJPHRpdGxlIGlkPSJ0aXRsZTU5Nzc3Ij5BenVyZSBQb3J0YWwgLSBBbGwgUmVzb3VyY2VzPC90aXRsZT4mI3hhOwkJPGcgaWQ9InNoYXBlNDMwOS0yIiB0cmFuc2Zvcm09InRyYW5zbGF0ZSgwLC0xNy42NjI3KSI+JiN4YTsJCQk8dGl0bGUgaWQ9InRpdGxlNTk3NzkiPlNoZWV0LjQzMDk8L3RpdGxlPiYjeGE7CQkJPHJlY3QgaWQ9InJlY3Q1OTc4MSIgeT0iMTkuMTYiIHN0eWxlPSJmaWxsOiNCOEQ0MzI7IiB3aWR0aD0iNy40NSIgaGVpZ2h0PSI3LjQ3Ii8+JiN4YTsJCTwvZz4mI3hhOwkJPGcgaWQ9InNoYXBlNDMxMC00IiB0cmFuc2Zvcm09InRyYW5zbGF0ZSg4Ljg1MzA4LC0xNy42NjI3KSI+JiN4YTsJCQk8dGl0bGUgaWQ9InRpdGxlNTk3ODQiPlNoZWV0LjQzMTA8L3RpdGxlPiYjeGE7CQkJPHJlY3QgaWQ9InJlY3Q1OTc4NiIgeD0iMCIgeT0iMTkuMTYiIHN0eWxlPSJmaWxsOiNCOEQ0MzI7IiB3aWR0aD0iNy40NSIgaGVpZ2h0PSI3LjQ3Ii8+JiN4YTsJCTwvZz4mI3hhOwkJPGcgaWQ9InNoYXBlNDMxMS02IiB0cmFuc2Zvcm09InRyYW5zbGF0ZSgxNy42NjI3LC0xNy42NjI3KSI+JiN4YTsJCQk8dGl0bGUgaWQ9InRpdGxlNTk3ODkiPlNoZWV0LjQzMTE8L3RpdGxlPiYjeGE7CQkJPHJlY3QgaWQ9InJlY3Q1OTc5MSIgeD0iMCIgeT0iMTkuMTYiIHN0eWxlPSJmaWxsOiNCOEQ0MzI7IiB3aWR0aD0iNy40NSIgaGVpZ2h0PSI3LjQ3Ii8+JiN4YTsJCTwvZz4mI3hhOwkJPGcgaWQ9InNoYXBlNDMxMi04IiB0cmFuc2Zvcm09InRyYW5zbGF0ZSgwLjAyMTczODcsLTguODMxMzUpIj4mI3hhOwkJCTx0aXRsZSBpZD0idGl0bGU1OTc5NCI+U2hlZXQuNDMxMjwvdGl0bGU+JiN4YTsJCQk8cmVjdCBpZD0icmVjdDU5Nzk2IiB4PSIwIiB5PSIxOS4xNiIgc3R5bGU9ImZpbGw6I0I4RDQzMjsiIHdpZHRoPSI3LjQ1IiBoZWlnaHQ9IjcuNDciLz4mI3hhOwkJPC9nPiYjeGE7CQk8ZyBpZD0ic2hhcGU0MzEzLTEwIiB0cmFuc2Zvcm09InRyYW5zbGF0ZSg4Ljg1MzA4LC04LjgzMTM1KSI+JiN4YTsJCQk8dGl0bGUgaWQ9InRpdGxlNTk3OTkiPlNoZWV0LjQzMTM8L3RpdGxlPiYjeGE7CQkJPHJlY3QgaWQ9InJlY3Q1OTgwMSIgeD0iMCIgeT0iMTkuMTYiIHN0eWxlPSJmaWxsOiNCOEQ0MzI7IiB3aWR0aD0iNy40NSIgaGVpZ2h0PSI3LjQ3Ii8+JiN4YTsJCTwvZz4mI3hhOwkJPGcgaWQ9InNoYXBlNDMxNC0xMiIgdHJhbnNmb3JtPSJ0cmFuc2xhdGUoMTcuNjg0NCwtOC44MzEzNSkiPiYjeGE7CQkJPHRpdGxlIGlkPSJ0aXRsZTU5ODA0Ij5TaGVldC40MzE0PC90aXRsZT4mI3hhOwkJCTxyZWN0IGlkPSJyZWN0NTk4MDYiIHg9IjAiIHk9IjE5LjE2IiBzdHlsZT0iZmlsbDojQjhENDMyOyIgd2lkdGg9IjcuNDUiIGhlaWdodD0iNy40NyIvPiYjeGE7CQk8L2c+JiN4YTsJCTxnIGlkPSJzaGFwZTQzMTUtMTQiIHRyYW5zZm9ybT0idHJhbnNsYXRlKDAuMDIxNzM4NykiPiYjeGE7CQkJPHRpdGxlIGlkPSJ0aXRsZTU5ODA5Ij5TaGVldC40MzE1PC90aXRsZT4mI3hhOwkJCTxyZWN0IGlkPSJyZWN0NTk4MTEiIHg9IjAiIHk9IjE5LjE2IiBzdHlsZT0iZmlsbDojQjhENDMyOyIgd2lkdGg9IjcuNDUiIGhlaWdodD0iNy40NyIvPiYjeGE7CQk8L2c+JiN4YTsJCTxnIGlkPSJzaGFwZTQzMTYtMTYiIHRyYW5zZm9ybT0idHJhbnNsYXRlKDguODUzMDgpIj4mI3hhOwkJCTx0aXRsZSBpZD0idGl0bGU1OTgxNCI+U2hlZXQuNDMxNjwvdGl0bGU+JiN4YTsJCQk8cmVjdCBpZD0icmVjdDU5ODE2IiB4PSIwIiB5PSIxOS4xNiIgc3R5bGU9ImZpbGw6I0I4RDQzMjsiIHdpZHRoPSI3LjQ1IiBoZWlnaHQ9IjcuNDciLz4mI3hhOwkJPC9nPiYjeGE7CQk8ZyBpZD0ic2hhcGU0MzE3LTE4IiB0cmFuc2Zvcm09InRyYW5zbGF0ZSgxNy42ODQ0KSI+JiN4YTsJCQk8dGl0bGUgaWQ9InRpdGxlNTk4MTkiPlNoZWV0LjQzMTc8L3RpdGxlPiYjeGE7CQkJPHJlY3QgaWQ9InJlY3Q1OTgyMSIgeD0iMCIgeT0iMTkuMTYiIHN0eWxlPSJmaWxsOiNCOEQ0MzI7IiB3aWR0aD0iNy40NSIgaGVpZ2h0PSI3LjQ3Ii8+JiN4YTsJCTwvZz4mI3hhOwk8L2c+JiN4YTs8L2c+JiN4YTs8L3N2Zz4=;shadow=0;sketch=0;fillStyle=solid;fontSize=13;fontColor=#FFFFFF;strokeWidth=3;fillColor=#FFFFFF;imageBackground=none;labelPosition=right;align=left;fontStyle=0" parent="1" vertex="1">
          <mxGeometry x="624" y="789" width="41" height="41" as="geometry" />
        </mxCell>
        <mxCell id="pQ5sCnLRhXGrllm_cWw9-59" value="" style="rounded=1;whiteSpace=wrap;html=1;shadow=0;strokeWidth=2;fillColor=#8BC63E;fontSize=12;fontColor=#FFFFFF;align=left;strokeColor=none;arcSize=3;labelPosition=right;verticalLabelPosition=middle;verticalAlign=middle;opacity=50;" parent="1" vertex="1">
          <mxGeometry x="1160" y="760" width="530" height="420" as="geometry" />
        </mxCell>
        <mxCell id="pQ5sCnLRhXGrllm_cWw9-60" value="Deployable resources" style="rounded=1;whiteSpace=wrap;html=1;shadow=0;strokeWidth=2;fillColor=none;fontSize=12;fontColor=#FFFFFF;align=center;strokeColor=#FFFFFF;arcSize=10;labelPosition=center;verticalLabelPosition=top;verticalAlign=bottom;fontStyle=1" parent="1" vertex="1">
          <mxGeometry x="1323" y="889" width="171" height="241" as="geometry" />
        </mxCell>
        <mxCell id="pQ5sCnLRhXGrllm_cWw9-61" value="Availability set" style="rounded=1;whiteSpace=wrap;html=1;shadow=0;strokeWidth=2;fillColor=none;fontSize=11;fontColor=#FFFFFF;align=center;strokeColor=#FFFFFF;dashed=1;verticalAlign=top;" parent="1" vertex="1">
          <mxGeometry x="1333" y="899" width="151" height="222" as="geometry" />
        </mxCell>
        <mxCell id="pQ5sCnLRhXGrllm_cWw9-62" value="Dependant resources" style="rounded=1;whiteSpace=wrap;html=1;shadow=0;strokeWidth=2;fillColor=none;fontSize=12;fontColor=#FFFFFF;align=center;strokeColor=#FFFFFF;labelPosition=center;verticalLabelPosition=top;verticalAlign=bottom;fontStyle=1;arcSize=12;" parent="1" vertex="1">
          <mxGeometry x="1180" y="889" width="134" height="240" as="geometry" />
        </mxCell>
        <mxCell id="pQ5sCnLRhXGrllm_cWw9-63" value="Seeding data" style="rounded=1;whiteSpace=wrap;html=1;shadow=0;strokeWidth=2;fillColor=none;fontSize=12;fontColor=#FFFFFF;align=center;strokeColor=#FFFFFF;arcSize=9;labelPosition=center;verticalLabelPosition=top;verticalAlign=bottom;fontStyle=1" parent="1" vertex="1">
          <mxGeometry x="1505" y="889" width="160" height="241" as="geometry" />
        </mxCell>
        <mxCell id="pQ5sCnLRhXGrllm_cWw9-64" value="" style="endArrow=classic;html=1;rounded=1;fontSize=9;fontColor=#FFFFFF;exitX=0.5;exitY=1;exitDx=0;exitDy=0;entryX=0.5;entryY=0;entryDx=0;entryDy=0;strokeColor=#CCCCCC;jumpSize=10;arcSize=26;endSize=6;startSize=5;" parent="1" source="pQ5sCnLRhXGrllm_cWw9-65" target="pQ5sCnLRhXGrllm_cWw9-66" edge="1">
          <mxGeometry width="50" height="50" relative="1" as="geometry">
            <mxPoint x="1413" y="967.3399999999999" as="sourcePoint" />
            <mxPoint x="1463" y="917.3399999999999" as="targetPoint" />
          </mxGeometry>
        </mxCell>
        <mxCell id="pQ5sCnLRhXGrllm_cWw9-65" value="storage account&#xa;stptwinstaller" style="shape=image;verticalLabelPosition=bottom;verticalAlign=top;imageAspect=0;aspect=fixed;image=data:image/svg+xml,PHN2ZyB4bWxuczpkYz0iaHR0cDovL3B1cmwub3JnL2RjL2VsZW1lbnRzLzEuMS8iIHhtbG5zOmNjPSJodHRwOi8vY3JlYXRpdmVjb21tb25zLm9yZy9ucyMiIHhtbG5zOnJkZj0iaHR0cDovL3d3dy53My5vcmcvMTk5OS8wMi8yMi1yZGYtc3ludGF4LW5zIyIgeG1sbnM6c3ZnPSJodHRwOi8vd3d3LnczLm9yZy8yMDAwL3N2ZyIgeG1sbnM9Imh0dHA6Ly93d3cudzMub3JnLzIwMDAvc3ZnIiB4bWxuczpzb2RpcG9kaT0iaHR0cDovL3NvZGlwb2RpLnNvdXJjZWZvcmdlLm5ldC9EVEQvc29kaXBvZGktMC5kdGQiIHhtbG5zOmlua3NjYXBlPSJodHRwOi8vd3d3Lmlua3NjYXBlLm9yZy9uYW1lc3BhY2VzL2lua3NjYXBlIiB2ZXJzaW9uPSIxLjEiIGlkPSJMYXllcl8xIiB4PSIwcHgiIHk9IjBweCIgd2lkdGg9IjUwIiBoZWlnaHQ9IjQyLjkwMDAwMiIgdmlld0JveD0iMCAwIDUwIDQyLjkwMDAwMiIgZW5hYmxlLWJhY2tncm91bmQ9Im5ldyAwIDAgNTAgNTAiIHhtbDpzcGFjZT0icHJlc2VydmUiIHNvZGlwb2RpOmRvY25hbWU9InN0b3JhZ2VfYWNjb3VudHNfY2xhc3NpYy5zdmciIGlua3NjYXBlOnZlcnNpb249IjAuOTIuMyAoMjQwNTU0NiwgMjAxOC0wMy0xMSkiPjxtZXRhZGF0YSBpZD0ibWV0YWRhdGExMDgwOSI+PHJkZjpSREY+PGNjOldvcmsgcmRmOmFib3V0PSIiPjxkYzpmb3JtYXQ+aW1hZ2Uvc3ZnK3htbDwvZGM6Zm9ybWF0PjxkYzp0eXBlIHJkZjpyZXNvdXJjZT0iaHR0cDovL3B1cmwub3JnL2RjL2RjbWl0eXBlL1N0aWxsSW1hZ2UiLz48ZGM6dGl0bGUvPjwvY2M6V29yaz48L3JkZjpSREY+PC9tZXRhZGF0YT48ZGVmcyBpZD0iZGVmczEwODA3Ii8+PHNvZGlwb2RpOm5hbWVkdmlldyBwYWdlY29sb3I9IiNmZmZmZmYiIGJvcmRlcmNvbG9yPSIjNjY2NjY2IiBib3JkZXJvcGFjaXR5PSIxIiBvYmplY3R0b2xlcmFuY2U9IjEwIiBncmlkdG9sZXJhbmNlPSIxMCIgZ3VpZGV0b2xlcmFuY2U9IjEwIiBpbmtzY2FwZTpwYWdlb3BhY2l0eT0iMCIgaW5rc2NhcGU6cGFnZXNoYWRvdz0iMiIgaW5rc2NhcGU6d2luZG93LXdpZHRoPSIxOTIwIiBpbmtzY2FwZTp3aW5kb3ctaGVpZ2h0PSIxMDE3IiBpZD0ibmFtZWR2aWV3MTA4MDUiIHNob3dncmlkPSJmYWxzZSIgZml0LW1hcmdpbi10b3A9IjAiIGZpdC1tYXJnaW4tbGVmdD0iMCIgZml0LW1hcmdpbi1yaWdodD0iMCIgZml0LW1hcmdpbi1ib3R0b209IjAiIGlua3NjYXBlOnpvb209IjE3IiBpbmtzY2FwZTpjeD0iMjUiIGlua3NjYXBlOmN5PSIyMiIgaW5rc2NhcGU6d2luZG93LXg9Ii04IiBpbmtzY2FwZTp3aW5kb3cteT0iLTgiIGlua3NjYXBlOndpbmRvdy1tYXhpbWl6ZWQ9IjEiIGlua3NjYXBlOmN1cnJlbnQtbGF5ZXI9IkxheWVyXzEiLz4mI3hhOzxwYXRoIGQ9Im0gMCw0MSBjIDAsMSAwLjgsMS45IDEuOCwxLjkgaCA0Ni4zIGMgMSwwIDEuOSwtMC44IDEuOSwtMS45IFYgNy45IEggMCBaIiBpZD0icGF0aDEwNzk0IiBpbmtzY2FwZTpjb25uZWN0b3ItY3VydmF0dXJlPSIwIiBzdHlsZT0iZmlsbDojNTliNGQ5Ii8+JiN4YTs8cGF0aCBkPSJNIDQ4LjEsMCBIIDEuOCBDIDAuOCwwIDAsMC45IDAsMS45IHYgNiBoIDUwIHYgLTYgYyAwLC0xIC0wLjgsLTEuNiAtMS45LC0xLjYiIGlkPSJwYXRoMTA3OTYiIGlua3NjYXBlOmNvbm5lY3Rvci1jdXJ2YXR1cmU9IjAiIHN0eWxlPSJmaWxsOiMwMDcyYzYiLz4mI3hhOzxyZWN0IHg9IjQiIHk9IjIxLjQiIHdpZHRoPSI0MiIgaGVpZ2h0PSI3IiBpZD0icmVjdDEwNzk4IiBzdHlsZT0iZmlsbDojMDA3MmM2Ii8+JiN4YTs8cmVjdCB4PSI0IiB5PSIxMC45IiB3aWR0aD0iNDIiIGhlaWdodD0iNyIgaWQ9InJlY3QxMDgwMCIgc3R5bGU9ImZpbGw6I2ZmZmZmZiIvPiYjeGE7PHJlY3QgeD0iNCIgeT0iMzEuOSIgd2lkdGg9IjQyIiBoZWlnaHQ9IjciIGlkPSJyZWN0MTA4MDIiIHN0eWxlPSJmaWxsOiMwMDcyYzYiLz4mI3hhOzwvc3ZnPg==;shadow=0;labelBackgroundColor=none;sketch=0;fillStyle=solid;fontSize=9;fontColor=#FFFFFF;fillColor=#FFFFFF;spacing=0;imageBackground=none;" parent="1" vertex="1">
          <mxGeometry x="1375.8899999999999" y="930.9100000000001" width="65.22" height="56.09" as="geometry" />
        </mxCell>
        <mxCell id="pQ5sCnLRhXGrllm_cWw9-66" value="blob container&#xa;installation-public&#xa;" style="shape=image;verticalLabelPosition=bottom;labelBackgroundColor=none;verticalAlign=top;aspect=fixed;imageAspect=0;image=data:image/svg+xml,PHN2ZyB4bWxuczpjYz0iaHR0cDovL2NyZWF0aXZlY29tbW9ucy5vcmcvbnMjIiB4bWxuczpkYz0iaHR0cDovL3B1cmwub3JnL2RjL2VsZW1lbnRzLzEuMS8iIHhtbG5zOmlua3NjYXBlPSJodHRwOi8vd3d3Lmlua3NjYXBlLm9yZy9uYW1lc3BhY2VzL2lua3NjYXBlIiB4bWxuczpyZGY9Imh0dHA6Ly93d3cudzMub3JnLzE5OTkvMDIvMjItcmRmLXN5bnRheC1ucyMiIHhtbG5zOnNvZGlwb2RpPSJodHRwOi8vc29kaXBvZGkuc291cmNlZm9yZ2UubmV0L0RURC9zb2RpcG9kaS0wLmR0ZCIgeG1sbnM6c3ZnPSJodHRwOi8vd3d3LnczLm9yZy8yMDAwL3N2ZyIgeG1sbnM9Imh0dHA6Ly93d3cudzMub3JnLzIwMDAvc3ZnIiB4bWxuczp4bGluaz0iaHR0cDovL3d3dy53My5vcmcvMTk5OS94bGluayIgdmVyc2lvbj0iMS4xIiBpZD0ic3ZnNTgwODUiIGlua3NjYXBlOnZlcnNpb249IjAuOTIuMyAoMjQwNTU0NiwgMjAxOC0wMy0xMSkiIHNvZGlwb2RpOmRvY25hbWU9ImF6dXJlX2ZpbGVzX3N0b3JhZ2Uuc3ZnIiB4PSIwcHgiIHk9IjBweCIgdmlld0JveD0iMCAwIDc1LjE3IDYyLjY1IiBzdHlsZT0iZW5hYmxlLWJhY2tncm91bmQ6bmV3IDAgMCA3NS4xNyA2Mi42NTsiIHhtbDpzcGFjZT0icHJlc2VydmUiPiYjeGE7PHNvZGlwb2RpOm5hbWVkdmlldyBib3JkZXJjb2xvcj0iIzY2NjY2NiIgYm9yZGVyb3BhY2l0eT0iMSIgZml0LW1hcmdpbi1ib3R0b209IjAiIGZpdC1tYXJnaW4tbGVmdD0iMCIgZml0LW1hcmdpbi1yaWdodD0iMCIgZml0LW1hcmdpbi10b3A9IjAiIGdyaWR0b2xlcmFuY2U9IjEwIiBndWlkZXRvbGVyYW5jZT0iMTAiIGlkPSJuYW1lZHZpZXc1ODA4NyIgaW5rc2NhcGU6Y3VycmVudC1sYXllcj0ic3ZnNTgwODUiIGlua3NjYXBlOmN4PSIxMDcuNDEzOTciIGlua3NjYXBlOmN5PSIyNS4yNzAzOCIgaW5rc2NhcGU6cGFnZW9wYWNpdHk9IjAiIGlua3NjYXBlOnBhZ2VzaGFkb3c9IjIiIGlua3NjYXBlOndpbmRvdy1oZWlnaHQ9IjEwMTciIGlua3NjYXBlOndpbmRvdy1tYXhpbWl6ZWQ9IjEiIGlua3NjYXBlOndpbmRvdy13aWR0aD0iMTkyMCIgaW5rc2NhcGU6d2luZG93LXg9Ii04IiBpbmtzY2FwZTp3aW5kb3cteT0iLTgiIGlua3NjYXBlOnpvb209IjQuMTcxMTY5OSIgb2JqZWN0dG9sZXJhbmNlPSIxMCIgcGFnZWNvbG9yPSIjZmZmZmZmIiBzaG93Z3JpZD0iZmFsc2UiPiYjeGE7CTwvc29kaXBvZGk6bmFtZWR2aWV3PiYjeGE7PGcgaWQ9Imc1ODA4MyIgdHJhbnNmb3JtPSJ0cmFuc2xhdGUoLTcuNjUwMTcwMywtNy42NDczOTUpIj4mI3hhOwk8dGl0bGUgaWQ9InRpdGxlNTgwNDYiPlBhZ2UtMTwvdGl0bGU+JiN4YTsJPGcgaWQ9Imdyb3VwNTIwOS0xIiB0cmFuc2Zvcm09InRyYW5zbGF0ZSg3LjY1LC03LjY1KSI+JiN4YTsJCTx0aXRsZSBpZD0idGl0bGU1ODA0OCI+QXp1cmUgRmlsZXMgU3RvcmFnZTwvdGl0bGU+JiN4YTsJCTxnIGlkPSJzaGFwZTUyMTAtMiI+JiN4YTsJCQk8dGl0bGUgaWQ9InRpdGxlNTgwNTAiPlNoZWV0LjUyMTA8L3RpdGxlPiYjeGE7CQkJPHBhdGggaWQ9InBhdGg1ODA1MiIgaW5rc2NhcGU6Y29ubmVjdG9yLWN1cnZhdHVyZT0iMCIgc3R5bGU9ImZpbGw6I0EwQTFBMjsiIGQ9Ik0wLDc1LjE4YzAsMS40NSwxLjIsMi43NywyLjcxLDIuNzdoNjkuNjEgICAgIGMxLjUsMCwyLjg1LTEuMTcsMi44NS0yLjc3VjI2Ljk1SDBWNzUuMTh6Ii8+JiN4YTsJCTwvZz4mI3hhOwkJPGcgaWQ9InNoYXBlNTIxMS00IiB0cmFuc2Zvcm09InRyYW5zbGF0ZSgwLC01MC45OTExKSI+JiN4YTsJCQk8dGl0bGUgaWQ9InRpdGxlNTgwNTUiPlNoZWV0LjUyMTE8L3RpdGxlPiYjeGE7CQkJPHBhdGggaWQ9InBhdGg1ODA1NyIgaW5rc2NhcGU6Y29ubmVjdG9yLWN1cnZhdHVyZT0iMCIgc3R5bGU9ImZpbGw6IzdBN0E3QTsiIGQ9Ik03Mi4zMiw2Ni40NEgyLjcxQzEuMiw2Ni40NCwwLDY3Ljc1LDAsNjkuMiAgICAgdjguNzVoNzUuMTd2LTguNzRjMC0xLjQ2LTEuMjItMi42MS0yLjg3LTIuNjFMNzIuMzIsNjYuNDR6Ii8+JiN4YTsJCQk8cGF0aCBpZD0icGF0aDU4MDU5IiBpbmtzY2FwZTpjb25uZWN0b3ItY3VydmF0dXJlPSIwIiBzdHlsZT0iZmlsbDpub25lOyIgZD0iTTcyLjMyLDY2LjQ0SDIuNzFDMS4yLDY2LjQ0LDAsNjcuNzUsMCw2OS4ydjguNzUgICAgIGg3NS4xN3YtOC43NGMwLTEuNDYtMS4yMi0yLjYxLTIuODctMi42MSIvPiYjeGE7CQk8L2c+JiN4YTsJCTxnIGlkPSJzaGFwZTUyMTItNyIgdHJhbnNmb3JtPSJ0cmFuc2xhdGUoNi4wMTM5OSwtMjEuMTI0MSkiPiYjeGE7CQkJPHRpdGxlIGlkPSJ0aXRsZTU4MDYyIj5TaGVldC41MjEyPC90aXRsZT4mI3hhOwkJCTxyZWN0IGlkPSJyZWN0NTgwNjQiIHg9IjAiIHk9IjY3Ljc1IiBzdHlsZT0iZmlsbDojQjhENDMyOyIgd2lkdGg9IjYzLjE1IiBoZWlnaHQ9IjEwLjIiLz4mI3hhOwkJPC9nPiYjeGE7CQk8ZyBpZD0ic2hhcGU1MjEzLTkiIHRyYW5zZm9ybT0idHJhbnNsYXRlKDYuMDEzOTksLTM2LjQyMSkiPiYjeGE7CQkJPHRpdGxlIGlkPSJ0aXRsZTU4MDY3Ij5TaGVldC41MjEzPC90aXRsZT4mI3hhOwkJCTxyZWN0IGlkPSJyZWN0NTgwNjkiIHg9IjAiIHk9IjY3Ljc1IiBzdHlsZT0iZmlsbDojRkZGRkZGOyIgd2lkdGg9IjYzLjE1IiBoZWlnaHQ9IjEwLjIiLz4mI3hhOwkJPC9nPiYjeGE7CQk8ZyBpZD0ic2hhcGU1MjE0LTExIiB0cmFuc2Zvcm09InRyYW5zbGF0ZSg2LjAxMzk5LC01LjgyNzMpIj4mI3hhOwkJCTx0aXRsZSBpZD0idGl0bGU1ODA3MiI+U2hlZXQuNTIxNDwvdGl0bGU+JiN4YTsJCQk8cmVjdCBpZD0icmVjdDU4MDc0IiB4PSIwIiB5PSI2Ny43NSIgc3R5bGU9ImZpbGw6I0I4RDQzMjsiIHdpZHRoPSI2My4xNSIgaGVpZ2h0PSIxMC4yIi8+JiN4YTsJCTwvZz4mI3hhOwkJPGcgaWQ9InNoYXBlNTIxNS0xMyIgdHJhbnNmb3JtPSJ0cmFuc2xhdGUoMCwtMC41ODI2MDUpIj4mI3hhOwkJCTx0aXRsZSBpZD0idGl0bGU1ODA3NyI+U2hlZXQuNTIxNTwvdGl0bGU+JiN4YTsJCQk8cGF0aCBpZD0icGF0aDU4MDc5IiBpbmtzY2FwZTpjb25uZWN0b3ItY3VydmF0dXJlPSIwIiBzdHlsZT0iZmlsbDojRkZGRkZGO2ZpbGwtb3BhY2l0eTowLjI7IiBkPSJNMy4wMSwxNS44OCAgICAgQzEuMzUsMTUuODgsMCwxNy4xOSwwLDE4Ljh2MTAuNjN2NC44MXY0MC43OWMwLDEuNiwxLjM1LDIuOTIsMy4wMSwyLjkyaDMuM2w1OS4yNC02Mi4wN0gzLjAxeiIvPiYjeGE7CQk8L2c+JiN4YTsJPC9nPiYjeGE7PC9nPiYjeGE7PC9zdmc+;shadow=0;sketch=0;fillStyle=solid;fontSize=9;fontColor=#FFFFFF;fillColor=#FFFFFF;" parent="1" vertex="1">
          <mxGeometry x="1380.98" y="1037" width="55.04" height="46.24" as="geometry" />
        </mxCell>
        <mxCell id="pQ5sCnLRhXGrllm_cWw9-67" value="secret&lt;br style=&quot;font-size: 9px;&quot;&gt;public-storage-access-key" style="sketch=0;aspect=fixed;html=1;points=[];align=center;image;fontSize=9;image=img/lib/mscae/Key_Vaults.svg;shadow=0;labelBackgroundColor=none;fillStyle=solid;fontColor=#FFFFFF;strokeWidth=3;fillColor=#FFFFFF;" parent="1" vertex="1">
          <mxGeometry x="1218.5" y="910" width="57" height="59.38" as="geometry" />
        </mxCell>
        <mxCell id="pQ5sCnLRhXGrllm_cWw9-68" value="secret&lt;br style=&quot;font-size: 9px;&quot;&gt;CsoPortal-API-Access" style="sketch=0;aspect=fixed;html=1;points=[];align=center;image;fontSize=9;image=img/lib/mscae/Key_Vaults.svg;shadow=0;labelBackgroundColor=none;fillStyle=solid;fontColor=#FFFFFF;strokeWidth=3;fillColor=#FFFFFF;" parent="1" vertex="1">
          <mxGeometry x="1218.5" y="1020.19" width="57" height="59.38" as="geometry" />
        </mxCell>
        <mxCell id="pQ5sCnLRhXGrllm_cWw9-69" value="Ptw Installer&#xa;[name of resource group]" style="shape=image;verticalLabelPosition=middle;labelBackgroundColor=none;verticalAlign=middle;aspect=fixed;imageAspect=0;image=data:image/svg+xml,PHN2ZyB4bWxuczpjYz0iaHR0cDovL2NyZWF0aXZlY29tbW9ucy5vcmcvbnMjIiB4bWxuczpkYz0iaHR0cDovL3B1cmwub3JnL2RjL2VsZW1lbnRzLzEuMS8iIHhtbG5zOmlua3NjYXBlPSJodHRwOi8vd3d3Lmlua3NjYXBlLm9yZy9uYW1lc3BhY2VzL2lua3NjYXBlIiB4bWxuczpyZGY9Imh0dHA6Ly93d3cudzMub3JnLzE5OTkvMDIvMjItcmRmLXN5bnRheC1ucyMiIHhtbG5zOnNvZGlwb2RpPSJodHRwOi8vc29kaXBvZGkuc291cmNlZm9yZ2UubmV0L0RURC9zb2RpcG9kaS0wLmR0ZCIgeG1sbnM6c3ZnPSJodHRwOi8vd3d3LnczLm9yZy8yMDAwL3N2ZyIgeG1sbnM9Imh0dHA6Ly93d3cudzMub3JnLzIwMDAvc3ZnIiB4bWxuczp4bGluaz0iaHR0cDovL3d3dy53My5vcmcvMTk5OS94bGluayIgdmVyc2lvbj0iMS4xIiBpZD0ic3ZnNTk4MjciIGlua3NjYXBlOnZlcnNpb249IjAuOTIuMyAoMjQwNTU0NiwgMjAxOC0wMy0xMSkiIHNvZGlwb2RpOmRvY25hbWU9ImF6dXJlX3BvcnRhbF9hbGxfcmVzb3VyY2VzLnN2ZyIgeD0iMHB4IiB5PSIwcHgiIHZpZXdCb3g9IjAgMCAyNS4xNCAyNS4xNCIgc3R5bGU9ImVuYWJsZS1iYWNrZ3JvdW5kOm5ldyAwIDAgMjUuMTQgMjUuMTQ7IiB4bWw6c3BhY2U9InByZXNlcnZlIj4mI3hhOzxzb2RpcG9kaTpuYW1lZHZpZXcgYm9yZGVyY29sb3I9IiM2NjY2NjYiIGJvcmRlcm9wYWNpdHk9IjEiIGZpdC1tYXJnaW4tYm90dG9tPSIwIiBmaXQtbWFyZ2luLWxlZnQ9IjAiIGZpdC1tYXJnaW4tcmlnaHQ9IjAiIGZpdC1tYXJnaW4tdG9wPSIwIiBncmlkdG9sZXJhbmNlPSIxMCIgZ3VpZGV0b2xlcmFuY2U9IjEwIiBpZD0ibmFtZWR2aWV3NTk4MjkiIGlua3NjYXBlOmN1cnJlbnQtbGF5ZXI9InN2ZzU5ODI3IiBpbmtzY2FwZTpjeD0iMTQuMTg2NDM5IiBpbmtzY2FwZTpjeT0iMTQuMzU2MDgzIiBpbmtzY2FwZTpwYWdlb3BhY2l0eT0iMCIgaW5rc2NhcGU6cGFnZXNoYWRvdz0iMiIgaW5rc2NhcGU6d2luZG93LWhlaWdodD0iMTAxNyIgaW5rc2NhcGU6d2luZG93LW1heGltaXplZD0iMSIgaW5rc2NhcGU6d2luZG93LXdpZHRoPSIxOTIwIiBpbmtzY2FwZTp3aW5kb3cteD0iLTgiIGlua3NjYXBlOndpbmRvdy15PSItOCIgaW5rc2NhcGU6em9vbT0iMTcuMjYyNjAzIiBvYmplY3R0b2xlcmFuY2U9IjEwIiBwYWdlY29sb3I9IiNmZmZmZmYiIHNob3dncmlkPSJmYWxzZSI+JiN4YTsJPC9zb2RpcG9kaTpuYW1lZHZpZXc+JiN4YTs8ZyBpZD0iZzU5ODI1IiB0cmFuc2Zvcm09InRyYW5zbGF0ZSgtMC43NSwtMC43NTAwMDA2NSkiPiYjeGE7CTx0aXRsZSBpZD0idGl0bGU1OTc3NSI+UGFnZS0xPC90aXRsZT4mI3hhOwk8ZyBpZD0iZ3JvdXA0MzA4LTEiIHRyYW5zZm9ybT0idHJhbnNsYXRlKDAuNzUsLTAuNzUpIj4mI3hhOwkJPHRpdGxlIGlkPSJ0aXRsZTU5Nzc3Ij5BenVyZSBQb3J0YWwgLSBBbGwgUmVzb3VyY2VzPC90aXRsZT4mI3hhOwkJPGcgaWQ9InNoYXBlNDMwOS0yIiB0cmFuc2Zvcm09InRyYW5zbGF0ZSgwLC0xNy42NjI3KSI+JiN4YTsJCQk8dGl0bGUgaWQ9InRpdGxlNTk3NzkiPlNoZWV0LjQzMDk8L3RpdGxlPiYjeGE7CQkJPHJlY3QgaWQ9InJlY3Q1OTc4MSIgeT0iMTkuMTYiIHN0eWxlPSJmaWxsOiNCOEQ0MzI7IiB3aWR0aD0iNy40NSIgaGVpZ2h0PSI3LjQ3Ii8+JiN4YTsJCTwvZz4mI3hhOwkJPGcgaWQ9InNoYXBlNDMxMC00IiB0cmFuc2Zvcm09InRyYW5zbGF0ZSg4Ljg1MzA4LC0xNy42NjI3KSI+JiN4YTsJCQk8dGl0bGUgaWQ9InRpdGxlNTk3ODQiPlNoZWV0LjQzMTA8L3RpdGxlPiYjeGE7CQkJPHJlY3QgaWQ9InJlY3Q1OTc4NiIgeD0iMCIgeT0iMTkuMTYiIHN0eWxlPSJmaWxsOiNCOEQ0MzI7IiB3aWR0aD0iNy40NSIgaGVpZ2h0PSI3LjQ3Ii8+JiN4YTsJCTwvZz4mI3hhOwkJPGcgaWQ9InNoYXBlNDMxMS02IiB0cmFuc2Zvcm09InRyYW5zbGF0ZSgxNy42NjI3LC0xNy42NjI3KSI+JiN4YTsJCQk8dGl0bGUgaWQ9InRpdGxlNTk3ODkiPlNoZWV0LjQzMTE8L3RpdGxlPiYjeGE7CQkJPHJlY3QgaWQ9InJlY3Q1OTc5MSIgeD0iMCIgeT0iMTkuMTYiIHN0eWxlPSJmaWxsOiNCOEQ0MzI7IiB3aWR0aD0iNy40NSIgaGVpZ2h0PSI3LjQ3Ii8+JiN4YTsJCTwvZz4mI3hhOwkJPGcgaWQ9InNoYXBlNDMxMi04IiB0cmFuc2Zvcm09InRyYW5zbGF0ZSgwLjAyMTczODcsLTguODMxMzUpIj4mI3hhOwkJCTx0aXRsZSBpZD0idGl0bGU1OTc5NCI+U2hlZXQuNDMxMjwvdGl0bGU+JiN4YTsJCQk8cmVjdCBpZD0icmVjdDU5Nzk2IiB4PSIwIiB5PSIxOS4xNiIgc3R5bGU9ImZpbGw6I0I4RDQzMjsiIHdpZHRoPSI3LjQ1IiBoZWlnaHQ9IjcuNDciLz4mI3hhOwkJPC9nPiYjeGE7CQk8ZyBpZD0ic2hhcGU0MzEzLTEwIiB0cmFuc2Zvcm09InRyYW5zbGF0ZSg4Ljg1MzA4LC04LjgzMTM1KSI+JiN4YTsJCQk8dGl0bGUgaWQ9InRpdGxlNTk3OTkiPlNoZWV0LjQzMTM8L3RpdGxlPiYjeGE7CQkJPHJlY3QgaWQ9InJlY3Q1OTgwMSIgeD0iMCIgeT0iMTkuMTYiIHN0eWxlPSJmaWxsOiNCOEQ0MzI7IiB3aWR0aD0iNy40NSIgaGVpZ2h0PSI3LjQ3Ii8+JiN4YTsJCTwvZz4mI3hhOwkJPGcgaWQ9InNoYXBlNDMxNC0xMiIgdHJhbnNmb3JtPSJ0cmFuc2xhdGUoMTcuNjg0NCwtOC44MzEzNSkiPiYjeGE7CQkJPHRpdGxlIGlkPSJ0aXRsZTU5ODA0Ij5TaGVldC40MzE0PC90aXRsZT4mI3hhOwkJCTxyZWN0IGlkPSJyZWN0NTk4MDYiIHg9IjAiIHk9IjE5LjE2IiBzdHlsZT0iZmlsbDojQjhENDMyOyIgd2lkdGg9IjcuNDUiIGhlaWdodD0iNy40NyIvPiYjeGE7CQk8L2c+JiN4YTsJCTxnIGlkPSJzaGFwZTQzMTUtMTQiIHRyYW5zZm9ybT0idHJhbnNsYXRlKDAuMDIxNzM4NykiPiYjeGE7CQkJPHRpdGxlIGlkPSJ0aXRsZTU5ODA5Ij5TaGVldC40MzE1PC90aXRsZT4mI3hhOwkJCTxyZWN0IGlkPSJyZWN0NTk4MTEiIHg9IjAiIHk9IjE5LjE2IiBzdHlsZT0iZmlsbDojQjhENDMyOyIgd2lkdGg9IjcuNDUiIGhlaWdodD0iNy40NyIvPiYjeGE7CQk8L2c+JiN4YTsJCTxnIGlkPSJzaGFwZTQzMTYtMTYiIHRyYW5zZm9ybT0idHJhbnNsYXRlKDguODUzMDgpIj4mI3hhOwkJCTx0aXRsZSBpZD0idGl0bGU1OTgxNCI+U2hlZXQuNDMxNjwvdGl0bGU+JiN4YTsJCQk8cmVjdCBpZD0icmVjdDU5ODE2IiB4PSIwIiB5PSIxOS4xNiIgc3R5bGU9ImZpbGw6I0I4RDQzMjsiIHdpZHRoPSI3LjQ1IiBoZWlnaHQ9IjcuNDciLz4mI3hhOwkJPC9nPiYjeGE7CQk8ZyBpZD0ic2hhcGU0MzE3LTE4IiB0cmFuc2Zvcm09InRyYW5zbGF0ZSgxNy42ODQ0KSI+JiN4YTsJCQk8dGl0bGUgaWQ9InRpdGxlNTk4MTkiPlNoZWV0LjQzMTc8L3RpdGxlPiYjeGE7CQkJPHJlY3QgaWQ9InJlY3Q1OTgyMSIgeD0iMCIgeT0iMTkuMTYiIHN0eWxlPSJmaWxsOiNCOEQ0MzI7IiB3aWR0aD0iNy40NSIgaGVpZ2h0PSI3LjQ3Ii8+JiN4YTsJCTwvZz4mI3hhOwk8L2c+JiN4YTs8L2c+JiN4YTs8L3N2Zz4=;shadow=0;sketch=0;fillStyle=solid;fontSize=13;fontColor=#FFFFFF;strokeWidth=3;fillColor=#FFFFFF;imageBackground=none;labelPosition=right;align=left;fontStyle=0" parent="1" vertex="1">
          <mxGeometry x="1180" y="789" width="41" height="41" as="geometry" />
        </mxCell>
      </root>
    </mxGraphModel>
  </diagram>
</mxfile>
